<?xml version="1.0" encoding="utf-8"?>
<!-- Generator: Adobe Illustrator 16.0.0, SVG Export Plug-In . SVG Version: 6.00 Build 0)  -->
<!DOCTYPE svg PUBLIC "-//W3C//DTD SVG 1.1//EN" "http://www.w3.org/Graphics/SVG/1.1/DTD/svg11.dtd">
<svg version="1.1" id="Layer_1" xmlns="http://www.w3.org/2000/svg" xmlns:xlink="http://www.w3.org/1999/xlink" x="0px" y="0px"
	 width="141.73px" height="141.73px" viewBox="0 0 141.73 141.73" enable-background="new 0 0 141.73 141.73" xml:space="preserve">
<path fill-rule="evenodd" clip-rule="evenodd" fill="#247123" d="M73.621,73.789c1.876-7.473,3.93-14.732,6.377-21.876
	c2.469-7.212,5.795-13.81,11.238-19.414c5.283-5.44,11.382-7.277,18.629-6.326c0.277,0.036,0.55,0.138,0.826,0.145
	c5.529,0.132,6.806,3.856,5.432,8.625c-1.543,5.358-6.433,7.969-12.66,6.715c-1.912-0.385-3.777-1.025-5.643-1.62
	c-3.37-1.076-5.395-0.328-7.109,2.825c-1.949,3.583-3.293,7.417-4.32,11.346c-1.836,7.018-3.557,14.067-5.329,21.115
	c0.729,0.322,0.958-0.258,1.244-0.551c1.765-1.811,3.91-2.902,6.337-3.512c1.941-0.486,3.016,0.127,3.242,2.098
	c0.209,1.805,0.157,3.613-0.203,5.428c-0.475,2.383-0.055,2.699,2.172,1.898c1.594-0.574,3.243-0.867,4.928-0.883
	c2.781-0.025,3.816,1.352,3.048,4.045c-0.618,2.16-1.519,4.219-2.679,6.135c-0.886,1.463-0.257,1.662,1.043,1.541
	c2.666-0.25,5.314-0.141,7.875,0.686c2.861,0.922,3.428,2.463,2.005,5.123c-0.921,1.723-2.34,2.934-4.444,4.119
	c1.033,0.252,1.703,0.447,2.385,0.578c1.77,0.34,3.33,1.07,4.559,2.406c1.02,1.109,2.358,1.723,3.604,2.494
	c0.546,0.338,1.41,0.699,1.191,1.539c-0.23,0.889-1.132,0.934-1.904,0.965c-2.529,0.102-5.023-0.268-7.523-0.57
	c-2.135-0.256-4.271-0.482-6.453-0.572c1.824,0.695,3.432,1.752,5.121,2.643c0.715,0.379,1.373,0.891,0.973,1.809
	c-0.434,0.996-1.221,0.639-1.968,0.359c-3.796-1.414-7.6-2.807-11.394-4.225c-0.971-0.363-1.932-0.701-3.394-0.594
	c1.382,1.354,2.362,2.604,3.241,3.93c0.407,0.611,0.74,1.281,0.161,1.908c-0.556,0.6-1.241,0.189-1.719-0.15
	c-2.388-1.693-4.726-3.457-7.091-5.182c-1.068-0.779-2.105-1.625-3.478-1.918c-0.022,0.17-0.093,0.318-0.046,0.387
	c0.646,0.949,2.269,1.955,1.659,2.854c-0.774,1.148-2.289-0.045-3.388-0.418c-2.92-0.986-5.24-2.854-7.085-5.334
	c-0.351-0.473-0.644-1.512-1.563-0.803c-0.792,0.611-0.475,1.357,0.063,2.02c2.755,3.395,5.914,6.115,10.51,6.635
	c1.168,0.131,2.349,0.49,3.291,1.273c0.5,0.414,0.844,1.01,0.516,1.674c-0.348,0.705-0.961,0.338-1.48,0.221
	c-0.34-0.078-0.666-0.211-1.006-0.295c-3.602-0.906-3.609-0.906-4.037,2.664c-0.099,0.828-0.322,1.561-1.281,1.639
	c-0.846,0.072-1.257-0.545-1.457-1.252c-0.322-1.135-0.512-2.311-0.879-3.428c-0.215-0.652-0.629-1.271-1.266-1.631
	c-0.58-0.326-1.007-1.244-1.756-0.883c-0.706,0.342-0.092,1.141-0.173,1.729c-0.065,0.482,0.024,0.992-0.09,1.457
	c-0.206,0.836-0.595,1.746-1.562,1.715c-0.936-0.031-1.345-0.84-1.454-1.77c-0.179-1.523-0.388-3.047-0.631-4.561
	c-0.063-0.383-0.181-0.885-0.71-0.9c-0.412-0.014-0.546,0.402-0.695,0.703c-0.339,0.691-0.644,1.398-0.955,2.102
	c-0.255,0.574-0.469,1.326-1.265,1.121c-0.715-0.184-1.079-0.824-1.158-1.596c-0.16-1.547,0.682-2.656,1.583-3.748
	c0.258-0.313,0.721-0.609,0.536-1.053c-0.278-0.666-0.838-0.176-1.283-0.184c-2.272-0.047-3.365,1.229-3.97,3.277
	c-0.375,1.266-0.487,3.398-2.061,3.201c-1.654-0.207-0.846-2.346-1.203-3.701c-1.833,0.219-2.905,1.141-3.151,3.008
	c-0.127,0.969-0.331,1.93-0.568,2.877c-0.173,0.684-0.453,1.457-1.324,1.381c-0.97-0.088-1.141-0.943-1.154-1.73
	c-0.014-0.801,0.1-1.604,0.168-2.566c-1.271,0.469-1.626,1.514-2.229,2.322c-0.339,0.455-0.728,0.959-1.373,0.658
	c-0.598-0.279-0.649-0.896-0.511-1.461c0.466-1.902,1.387-3.426,3.184-4.453c2.104-1.203,4.369-2.234,5.828-4.34
	c0.357-0.516,1.02-0.996,0.542-1.625c-0.574-0.756-1.332-0.203-1.862,0.162c-1.092,0.75-2.09,1.637-3.139,2.451
	c-1.993,1.555-4.075,2.926-6.531,3.697c-1.728,0.543-3.443,1.18-4.82,2.465c-0.555,0.516-1.281,1.182-1.981,0.391
	c-0.674-0.762,0.11-1.42,0.561-2.004c1.366-1.77,3.146-3.088,4.957-4.387c-2.691,0.582-4.793,2.471-7.523,3.004
	c-3.323,0.648-6.363-0.586-9.509-1.047c-1.325-0.193-0.936-1.334-0.27-2.107c1.447-1.68,3.194-2.904,5.407-3.389
	c1.56-0.342,3.112-0.721,5.151-1.195c-1.73-1.598-3.063-3.045-4.181-4.68c-2.266-3.313-0.737-4.668,2.21-5.686
	c-1.682-1.688-2.896-3.584-3.551-5.807c-0.781-2.65,0.058-3.938,2.802-3.996c3.41-0.072,6.625,0.895,9.775,2.094
	c0.5,0.189,0.898,0.689,1.72,0.434c-0.573-1.615-1.105-3.232-1.72-4.82c-0.834-2.15-0.856-4.369-0.699-6.617
	c0.128-1.833,1.134-2.602,2.923-2.472c2.021,0.148,3.733,1.104,5.432,2.075c1.18,0.674,2.3,1.389,2.8-0.684
	c0.059-0.244,0.296-0.588,0.504-0.633c2.631-0.561,1.497-2.132,0.995-3.558c-2.883-8.172-4.632-16.497-4.319-25.26
	c0.327-9.167,6.423-17.395,15.341-19.478c5.813-1.358,11.55-0.667,16.913,2.131c2.509,1.308,3.518,3.653,3.057,6.513
	c-0.367,2.284-1.332,4.252-2.881,5.951c-3.23,3.545-6.632,3.978-10.646,1.302c-1.86-1.239-3.592-2.69-5.516-3.816
	c-4.711-2.756-8.031-1.309-9.126,4c-1.431,6.94-0.076,13.635,2.18,20.185c0.978,2.838,2.219,5.586,3.323,8.382
	c0.318,0.805,0.574,1.312,1.656,0.776c2.39-1.183,3.845-0.761,5.253,1.478C72.447,71.025,72.908,72.291,73.621,73.789z
	 M62.97,72.754c0.473-1.336-0.173-2.313-0.564-3.297c-2.298-5.779-4.786-11.503-5.75-17.704c-0.921-5.918-1.328-11.829,1.407-17.463
	c0.648-1.335,1.382-2.684,2.903-3.14c3.091-0.931,6.305-1.228,9.507-1.317c2.93-0.082,4.098,0.933,5.204,3.644
	c0.295,0.721,0.085,1.727,1.33,2.281c-0.084-2.021,0.262-3.792,1.645-5.243c1.473-1.546,3.341-1.646,5.584-1.497
	c-2.433-2.642-5.381-2.946-8.26-3.454c-11.854-2.087-20.559,7.217-21.02,16.916c-0.428,9.016,1.771,17.454,4.91,25.737
	C60.495,69.878,61.362,71.488,62.97,72.754z M106.101,36.866c-0.125-3.499,1.59-5.801,4.943-7.377
	c-1.363-0.241-2.354-0.487-3.359-0.583c-5.012-0.477-9.481,0.459-12.524,4.964c-0.302,0.446-0.8,0.904-0.306,1.48
	c0.396,0.46,0.896,0.184,1.359,0.039c1.936-0.605,3.89-1.127,5.92-1.262C104.808,33.951,105.449,34.421,106.101,36.866z
	 M74.772,85.025c4.896-14.207,6.805-29.27,12.729-43.175C80.499,55.434,77.283,70.131,74.772,85.025z"/>
<path fill-rule="evenodd" clip-rule="evenodd" fill="none" d="M62.97,72.754c-1.609-1.266-2.476-2.876-3.106-4.537
	c-3.139-8.284-5.337-16.722-4.91-25.737c0.461-9.699,9.165-19.003,21.02-16.916c2.879,0.507,5.827,0.812,8.26,3.454
	c-2.243-0.149-4.111-0.049-5.584,1.497c-1.383,1.451-1.729,3.222-1.645,5.243c-1.245-0.554-1.035-1.56-1.33-2.281
	c-1.105-2.711-2.273-3.726-5.204-3.644c-3.202,0.089-6.416,0.386-9.507,1.317c-1.521,0.457-2.254,1.805-2.903,3.14
	c-2.734,5.634-2.328,11.545-1.407,17.463c0.965,6.2,3.452,11.924,5.75,17.704C62.797,70.441,63.444,71.418,62.97,72.754z"/>
<path fill-rule="evenodd" clip-rule="evenodd" fill="none" d="M106.101,36.866c-0.652-2.445-1.293-2.915-3.967-2.739
	c-2.03,0.135-3.984,0.657-5.92,1.262c-0.463,0.145-0.963,0.421-1.359-0.039c-0.494-0.576,0.004-1.034,0.306-1.48
	c3.043-4.505,7.513-5.441,12.524-4.964c1.006,0.096,1.996,0.342,3.359,0.583C107.691,31.065,105.976,33.367,106.101,36.866z"/>
<path fill-rule="evenodd" clip-rule="evenodd" fill="none" d="M74.772,85.025c2.511-14.895,5.727-29.591,12.729-43.175
	C81.577,55.756,79.668,70.819,74.772,85.025z"/>
</svg>
