<?xml version="1.0" encoding="utf-8"?>
<!-- Generator: Adobe Illustrator 16.0.0, SVG Export Plug-In . SVG Version: 6.00 Build 0)  -->
<!DOCTYPE svg PUBLIC "-//W3C//DTD SVG 1.1//EN" "http://www.w3.org/Graphics/SVG/1.1/DTD/svg11.dtd">
<svg version="1.1" id="Layer_1" xmlns="http://www.w3.org/2000/svg" xmlns:xlink="http://www.w3.org/1999/xlink" x="0px" y="0px"
	 width="141.73px" height="141.73px" viewBox="0 0 141.73 141.73" enable-background="new 0 0 141.73 141.73" xml:space="preserve">
<g>
	<path fill-rule="evenodd" clip-rule="evenodd" fill="#247123" d="M70.647,122.996c-15.907,0-31.815-0.049-47.722,0.039
		c-3.474,0.018-6.169-1.223-8.042-4.012c-0.885-1.316-1.106-3.006-1.106-4.652c0.004-24.986-0.005-49.971,0.011-74.957
		c0.002-4.378,3.167-7.586,7.528-7.645c3.914-0.052,7.831,0.084,11.742-0.039c1.625-0.051,2.003,0.522,1.891,1.994
		c-0.147,1.922,0.002,3.819,1.078,5.534c1.981,3.157,5.937,4.74,9.559,3.79c3.757-0.986,6.092-3.812,6.358-7.707
		c0.04-0.582,0.101-1.172,0.044-1.747c-0.134-1.376,0.355-1.873,1.816-1.865c11.327,0.059,22.654,0.097,33.98-0.01
		c2.323-0.021,1.819,1.379,1.769,2.595c-0.156,3.703,1.287,6.499,4.633,8.132c3.299,1.61,6.479,1.112,9.41-0.995
		c2.357-1.694,3.406-4.137,3.172-6.937c-0.2-2.396,0.705-2.923,2.91-2.803c3.322,0.182,6.66,0.04,9.992,0.049
		c5.086,0.013,8.248,2.946,8.257,7.956c0.042,25.152,0.033,50.305,0.005,75.457c-0.005,3.902-2.488,6.807-6.338,7.553
		c-1.213,0.234-2.479,0.279-3.722,0.281c-15.741,0.018-31.481,0.012-47.223,0.012C70.647,123.012,70.647,123.004,70.647,122.996z
		 M70.958,50.947c0-0.038,0-0.076,0-0.114c-15.999,0-31.999,0.034-47.998-0.045c-1.943-0.009-2.511,0.446-2.503,2.46
		c0.075,19.832,0.033,39.664,0.035,59.496c0,3.779,0.023,3.809,3.868,3.809c31.082,0.006,62.164-0.004,93.246-0.008
		c3.535,0,3.557-0.014,3.559-3.434c0.014-19.832-0.018-39.665,0.094-59.497c0.013-2.285-0.676-2.727-2.803-2.715
		C102.623,50.987,86.791,50.947,70.958,50.947z"/>
	<path fill-rule="evenodd" clip-rule="evenodd" fill="#247123" d="M93.16,29.11c0-1.825-0.014-3.65,0.004-5.477
		c0.024-2.78,2.051-4.83,4.855-4.935c2.928-0.109,5.324,1.861,5.391,4.667c0.092,3.898,0.076,7.804-0.03,11.701
		c-0.079,2.848-2.372,4.858-5.271,4.859c-2.865,0-4.748-1.808-4.889-4.841c-0.092-1.988-0.018-3.983-0.018-5.976
		C93.189,29.11,93.175,29.11,93.16,29.11z"/>
	<path fill-rule="evenodd" clip-rule="evenodd" fill="#247123" d="M48.177,29.365c0,1.745,0.036,3.49-0.008,5.234
		c-0.078,3.134-1.799,5.097-4.523,5.229c-2.691,0.131-5.323-1.877-5.485-4.727c-0.23-4.055-0.214-8.143,0.038-12.195
		c0.161-2.599,2.953-4.411,5.641-4.15c2.559,0.248,4.292,2.149,4.364,4.876c0.05,1.91,0.009,3.821,0.009,5.732
		C48.201,29.365,48.189,29.365,48.177,29.365z"/>
	<path fill-rule="evenodd" clip-rule="evenodd" fill="#247123" d="M44.105,59.572c1.994,0,3.987-0.004,5.981,0.002
		c2.66,0.007,4.052,1.217,4.109,3.865c0.086,4.068,0.092,8.143-0.009,12.211c-0.059,2.365-1.643,3.855-4.002,3.889
		c-4.153,0.057-8.308,0.063-12.46-0.014c-3.131-0.059-4.371-1.383-4.369-4.439c0.002-3.739,0.009-7.478,0.051-11.216
		c0.035-3.087,1.328-4.293,4.469-4.263c1.496,0.015,2.991,0.021,4.486,0.03c0.582,0.003,1.163,0,1.745,0
		C44.105,59.616,44.105,59.595,44.105,59.572z"/>
	<path fill-rule="evenodd" clip-rule="evenodd" fill="#247123" d="M70.688,105.4c-2.165,0-4.331,0.033-6.495-0.008
		c-2.49-0.049-3.803-1.389-3.821-3.912c-0.028-3.998-0.021-7.994-0.003-11.992c0.012-2.609,1.147-3.85,3.766-3.918
		c4.494-0.117,8.993-0.219,13.486-0.15c2.182,0.031,3.627,1.309,3.68,3.596c0.098,4.246,0.132,8.496,0.05,12.74
		c-0.044,2.287-1.556,3.582-3.919,3.625c-2.247,0.039-4.496,0.008-6.744,0.008C70.688,105.393,70.688,105.396,70.688,105.4z"/>
	<path fill-rule="evenodd" clip-rule="evenodd" fill="#247123" d="M43.784,85.482c2.163,0,4.326-0.041,6.488,0.01
		c2.599,0.063,3.982,1.439,4.002,4.041c0.031,3.91,0.027,7.82-0.048,11.73c-0.057,2.951-1.253,4.098-4.11,4.105
		c-4.16,0.012-8.32,0.012-12.48-0.014c-2.829-0.018-4.207-1.295-4.244-4.035c-0.054-3.992-0.048-7.986-0.002-11.98
		c0.028-2.451,1.435-3.82,3.906-3.873c2.162-0.045,4.325-0.01,6.488-0.01C43.784,85.465,43.784,85.475,43.784,85.482z"/>
	<path fill-rule="evenodd" clip-rule="evenodd" fill="#247123" d="M97.64,79.5c-1.999,0-3.999,0.033-5.996-0.01
		c-2.906-0.063-4.274-1.436-4.296-4.293c-0.029-3.914-0.05-7.828-0.031-11.742c0.012-2.352,1.302-3.81,3.637-3.856
		c4.578-0.091,9.16-0.102,13.739-0.008c2.253,0.046,3.542,1.407,3.573,3.675c0.057,4.079,0.049,8.161-0.025,12.24
		c-0.047,2.6-1.43,3.906-4.105,3.982C101.971,79.551,99.805,79.502,97.64,79.5z"/>
	<path fill-rule="evenodd" clip-rule="evenodd" fill="#247123" d="M70.781,59.53c2.078,0,4.155-0.017,6.232,0.004
		c2.887,0.029,4.307,1.407,4.326,4.249c0.025,3.74,0.023,7.48-0.012,11.219c-0.027,3.018-1.414,4.42-4.42,4.451
		c-4.154,0.041-8.311,0.051-12.466,0.018c-2.678-0.021-4.002-1.309-4.041-3.961c-0.059-4.072-0.057-8.145-0.032-12.217
		c0.015-2.428,1.226-3.659,3.68-3.729c2.242-0.063,4.487-0.014,6.731-0.014C70.781,59.544,70.781,59.537,70.781,59.53z"/>
	<path fill-rule="evenodd" clip-rule="evenodd" fill="#247123" d="M97.814,85.463c2.079,0,4.16-0.045,6.238,0.01
		c2.771,0.072,4.156,1.426,4.195,4.152c0.057,3.908,0.075,7.82,0.029,11.729c-0.031,2.658-1.367,3.977-4.021,3.996
		c-4.159,0.033-8.319,0.035-12.478-0.045c-3.345-0.064-4.471-1.297-4.463-4.563c0.009-3.744-0.023-7.486-0.006-11.23
		c0.013-2.551,1.193-3.838,3.766-3.951c2.242-0.098,4.492-0.02,6.738-0.02C97.814,85.514,97.814,85.488,97.814,85.463z"/>
</g>
</svg>
