<?xml version="1.0" encoding="utf-8"?>
<!-- Generator: Adobe Illustrator 16.0.0, SVG Export Plug-In . SVG Version: 6.00 Build 0)  -->
<!DOCTYPE svg PUBLIC "-//W3C//DTD SVG 1.1//EN" "http://www.w3.org/Graphics/SVG/1.1/DTD/svg11.dtd">
<svg version="1.1" id="Layer_1" xmlns="http://www.w3.org/2000/svg" xmlns:xlink="http://www.w3.org/1999/xlink" x="0px" y="0px"
	 width="141.73px" height="141.73px" viewBox="0 0 141.73 141.73" enable-background="new 0 0 141.73 141.73" xml:space="preserve">
<path fill-rule="evenodd" clip-rule="evenodd" fill="#247123" d="M66.849,13.714c5.018,0.037,10.01,0.318,14.832,1.76
	c1.887,0.563,4.119,0.653,5.119,3.028c0.354,0.844,1.531,0.241,2.293,0.036c3.969-1.071,7.904-0.913,11.822,0.218
	c0.748,0.216,1.862,0.276,0.877,1.545c-0.342,0.441-1.348,0.928-0.427,1.539c0.729,0.484,1.976,0.828,2.561,0.042
	c1.899-2.553,3.45-0.906,4.97,0.284c3.418,2.683,6.219,6.02,9.209,9.139c1.401,1.461,3.001,2.604,4.493,3.912
	c3.471,3.039,6.713,6.153,7.408,11.129c0.219,1.563,1.496,2.949,2.103,4.49c5.261,13.384,5.181,26.794,0.04,40.188
	c-3.916,10.201-10.317,18.564-18.954,25.211c-1.198,0.922-2.389,2.193-4.221,1.639c-0.602-0.182-1.033,0.189-1.203,0.641
	c-1.408,3.727-5.025,4.676-8.047,6.238c-2.123,1.098-4.23,2.818-6.984,1.924c-0.215-0.07-0.573,0.232-0.84,0.402
	c-4.703,2.965-9.664,4.697-15.32,3.344c-0.438-0.104-0.984,0.053-1.436,0.215c-5.818,2.088-11.611,1.635-17.363-0.219
	c-1.836-0.592-3.725-0.666-5.574-0.994c-5.897-1.043-11.666-2.629-15.781-7.535c-0.669-0.799-1.693-1.033-2.61-1.396
	c-4.348-1.73-7.803-4.359-10.605-8.285c-1.605-2.248-4.097-4.02-5.951-6.242C7.954,94.813,3.911,82.216,6.44,67.678
	c1.225-7.044,2.032-14.159,3.143-21.224c1.25-7.952,5.715-13.649,13.021-16.774c5.834-2.495,11.397-5.236,16.618-8.947
	C47.418,14.906,57.109,13.972,66.849,13.714z M14.687,77.116c-0.192,1.064,0.42,1.891,0.914,2.711
	c2.334,3.875,5.557,6.809,9.536,8.945c6.56,3.523,13.642,3.465,20.73,2.846c10.511-0.918,20.628-3.617,30.486-7.326
	c0.977-0.369,2.002-1.117,2.943,0.039c1.393,1.709,2.223,0.564,2.568-0.689c0.609-2.215,2.242-3.168,4.083-4.047
	c4.065-1.943,7.805-4.444,11.604-6.843c8.163-5.153,13.318-12.373,15.287-21.865c0.982-4.731,2.345-9.434,0.229-14.195
	c-0.316-0.71-0.512-1.942-1.539-1.568c-0.86,0.313-0.504,1.508-0.305,2.221c1.234,4.395,0.039,8.771-2.488,11.81
	c-2.025,2.437-3.326,4.881-4.627,7.632c-2.055,4.349-5.342,7.854-9.333,10.56c-10.618,7.198-22.203,12.373-34.417,16.197
	c-7.295,2.285-14.626,4.34-22.379,4.238c-8.759-0.115-16.344-2.801-22.012-9.82C15.666,77.587,15.451,77.069,14.687,77.116z
	 M44.288,82.788c0.841-0.109,2.184-0.168,3.469-0.469c6.374-1.498,12.178-3.982,15.725-9.921c1.626-2.723,0.839-5.608-1.805-7.367
	c-1.634-1.087-3.473-1.696-5.419-1.553c-7.837,0.578-13.977,4.085-17.66,11.125C35.934,79.694,38.128,82.925,44.288,82.788z
	 M56.804,55.879c4.382,0.016,6.739-2.074,7.468-6.396c0.23-1.365,0.016-2.661-0.134-3.961c-0.568-4.938-4.272-9.177-8.717-10.13
	c-5.185-1.111-12.568,1.358-14.88,4.999c-0.309,0.486-0.56,1.026-0.742,1.573c-0.419,1.265-0.176,2.365,1.149,2.896
	c4.026,1.612,6.901,4.526,9.346,7.99C51.865,55.073,54.143,55.926,56.804,55.879z M43.179,64.929
	c5.483-2.62,5.822-3.739,2.795-8.802c-0.298-0.499-0.609-0.998-0.972-1.45c-5.146-6.406-11.927-9.657-20.035-10.234
	c-2.396-0.171-4.126,1.709-3.723,4.168c0.614,3.747-0.059,7.271-1.279,10.767c-1,2.864-1.382,5.82-1.211,8.842
	c0.422,7.453,6.295,12.416,13.626,11.664c1.735-0.178,2.574-0.947,2.586-2.604c0.016-2.061-1.601-0.918-2.361-0.98
	c-5.751-0.471-8.421-2.678-9.262-7.897c-0.491-3.054,0.308-5.939,1.11-8.832c0.713-2.569,1.314-5.165,1.144-7.863
	c-0.181-2.867,0.249-3.238,3.194-2.706C36.406,50.379,42.092,56.615,43.179,64.929z M80.294,67.905
	c2.005,0.015,4.009-0.054,5.933-0.646c4.652-1.436,5.727-5.407,2.205-8.707c-4.963-4.648-10.944-6.623-17.682-5.497
	c-4.536,0.758-6.739,3.1-6.974,5.72c-0.297,3.313,2.319,4.946,4.777,6.383C72.162,67.268,76.159,67.935,80.294,67.905z
	 M94.285,31.99c-6.787,0.034-13.219,1.486-18.938,5.281c-4.438,2.945-7.212,7.06-7.986,12.406c-0.088,0.613-0.372,1.741,0.516,1.55
	c1.437-0.309,3.385,0.073,3.898-2.219c1.121-4.993,4.283-8.412,8.875-10.43c3.898-1.713,7.971-2.856,12.314-2.755
	c3.73,0.088,4.541,0.943,3.999,4.674c-0.728,5.011-3.238,9.143-7.063,12.261c-2.188,1.784-2.15,2.729,0.123,4.031
	c0.744,0.426,1.029,1.742,2.383,0.638c6.787-5.531,9.803-12.626,9.102-21.313c-0.193-2.402-1.639-3.775-3.982-4.1
	C96.464,31.868,95.365,31.99,94.285,31.99z M72.07,104.675c0.012,0.76,0.248,1.975,0.798,3.117c0.185,0.385,0.406,0.793,0.901,0.662
	c0.455-0.121,0.572-0.564,0.586-0.994c0.045-1.26-0.174-2.482-0.639-3.654c-0.199-0.506-0.189-1.377-0.93-1.26
	C72,102.673,72.008,103.493,72.07,104.675z M41.984,100.774c-0.302-1.021,0.263-2.285-0.711-3.18
	c-0.107-0.098-0.661,0.09-0.831,0.293c-0.934,1.113-0.319,2.336-0.152,3.518c0.057,0.402,0.198,0.797,0.332,1.182
	c0.141,0.406,0.412,0.791,0.866,0.707c0.487-0.088,0.487-0.582,0.494-0.992C41.99,101.811,41.984,101.319,41.984,100.774z
	 M37.435,111.991c-1.049-1.438-1.87-3.107-3.466-4.092c-0.407-0.252-0.946,0.176-0.823,0.57c0.557,1.795,1.877,3.041,3.292,4.191
	c0.06,0.047,0.151,0.074,0.23,0.078C37.161,112.762,37.399,112.505,37.435,111.991z M51.687,105.579
	c-0.318,0.197-1,0.529-0.736,0.982c0.699,1.207,1.618,2.307,2.995,2.811c0.444,0.164,0.796-0.209,0.856-0.666
	C54.891,108.03,52.493,105.546,51.687,105.579z M95.546,101.997c0.315,0.027,0.632,0.057,0.946,0.086
	c0.974-1.68,0.816-3.51,0.373-5.354c-0.086-0.359-0.346-0.855-0.863-0.635c-0.221,0.094-0.43,0.5-0.436,0.77
	C95.527,98.573,95.546,100.286,95.546,101.997z M84.168,94.141c-0.258-0.838,0.572-2.176-0.564-2.391
	c-0.975-0.186-1.359,1.104-1.322,1.984c0.043,1.012-0.031,2.689,1.02,2.748C84.636,96.559,83.871,94.956,84.168,94.141z
	 M21.358,34.945c-2.191,0.758-2.804,2.103-3.479,3.381c-0.248,0.47-0.363,1.027,0.162,1.326c0.604,0.345,0.868-0.227,1.104-0.649
	C19.785,37.856,20.405,36.698,21.358,34.945z M51.437,118.319c-1.348-0.732-2.684-1.488-4.055-2.174
	c-0.215-0.107-0.676,0.008-0.867,0.186c-0.324,0.301-0.019,0.613,0.249,0.768C48.162,117.901,49.453,119.012,51.437,118.319z
	 M101.961,108.61c-1.333,1.096-1.709,2.354-2.232,3.51c-0.213,0.471-0.279,1.043,0.23,1.318c0.592,0.318,0.901-0.234,1.104-0.66
	C101.617,111.61,102.365,110.477,101.961,108.61z M95.441,81.456c-0.871,1.705-0.383,3.246,0.617,4.709
	C96.59,84.514,96.336,82.971,95.441,81.456z M84.986,119.647c2.025-0.076,3.838-0.684,5.736-2.719
	C88.104,117.352,86.513,118.384,84.986,119.647z M71.197,24.584c-0.223-0.125-0.443-0.249-0.666-0.373
	c-1.451,1.188-1.935,2.816-2.309,4.494c0.213,0.101,0.427,0.2,0.641,0.301C69.64,27.531,70.42,26.057,71.197,24.584z M57.422,95.374
	c-0.834,0.359-1.126,0.955-0.974,1.633c0.214,0.959,0.618,2.039,1.694,2.127c0.795,0.066,0.566-0.887,0.399-1.346
	C58.243,96.96,58.484,95.803,57.422,95.374z M83.445,109.577c1.631-0.676,2.979-1.709,4.076-3.074c0.111-0.139,0.096-0.486,0-0.662
	c-0.213-0.387-0.582-0.256-0.828-0.049C85.429,106.864,84.095,107.88,83.445,109.577z M111.4,98.77
	c-0.928,1.387-1.342,2.818-1.199,4.398c0.01,0.1,0.535,0.277,0.568,0.23c0.949-1.277,1.287-2.725,1.086-4.299
	C111.848,99.05,111.739,99.012,111.4,98.77z M55.577,23.96c0-0.553,0.084-1.058-0.019-1.521c-0.185-0.833,0.459-1.898-0.609-2.462
	c-0.165-0.087-0.636,0.181-0.826,0.403c-0.735,0.862-0.195,1.747,0.11,2.573C54.385,23.365,54.533,23.945,55.577,23.96z
	 M108.015,76.626c0.375-0.809,0.141-1.24-0.143-1.642c-0.564-0.793-1.029-1.723-2.127-1.89c-0.146-0.021-0.5,0.312-0.496,0.472
	c0.035,1.051,1.035,1.395,1.609,2.056C107.121,75.925,107.467,76.155,108.015,76.626z M106.07,85.483
	c-0.275,1.637-0.043,3.131,1.209,4.881C107.609,88.239,107.23,86.768,106.07,85.483z M47.962,27.54
	c-1.163-1.183-2.371-2.272-4.448-2.115C45.193,27.014,45.603,27.225,47.962,27.54z M129.604,74.814
	c0.375-2.882-0.256-3.897-2.375-4.168C127.993,71.987,128.692,73.215,129.604,74.814z M23.678,104.784
	c-0.355-1.658-1.034-3.127-2.534-4.541C20.942,102.62,22.189,103.776,23.678,104.784z M11.671,80.323
	c-0.114-0.754,0.017-1.746-0.98-2.014c-0.698-0.188-1.109,0.406-0.979,1.051c0.171,0.852,0.272,1.939,1.335,2.131
	C11.643,81.598,11.641,80.852,11.671,80.323z M14.631,88.928C14.092,90.557,15,91.671,15.61,92.8
	c0.168,0.311,0.579-0.025,0.745-0.305c0.803-1.348-0.57-2.031-0.957-3.016C15.329,89.305,15.043,89.216,14.631,88.928z
	 M124.071,44.411c-1.82-2.357-2.43-2.631-4.623-2.066C120.831,43.466,122.319,43.892,124.071,44.411z M66.725,121.237
	c1.587-0.457,3.277-0.771,4.662-2.717C69.22,119.055,67.769,119.755,66.725,121.237z M7.848,70.469
	c0.76,0.806,1.34,2.142,2.578,0.87c0.336-0.345,0.829-0.781,0.425-1.256C9.725,68.763,8.884,70.363,7.848,70.469z M116.224,64.26
	c1.324,1.284,2.341,2.27,3.286,3.188C118.905,65.309,118.784,65.176,116.224,64.26z M118.753,79.147
	c-0.229-1.512-0.63-2.59-1.644-3.365c-0.092-0.07-0.539,0.092-0.584,0.227c-0.473,1.373,0.978,1.848,1.379,2.826
	C117.943,78.932,118.187,78.946,118.753,79.147z M120.407,57.603c-1.698-2.62-2.241-2.968-4.149-2.808
	C117.42,55.876,118.434,56.859,120.407,57.603z M28.829,36.982c1.363,0.616,2.772,1.173,4.529,0.231
	C31.693,36.628,30.328,36.197,28.829,36.982z M28.591,99.553c0.47-3.061,0.47-3.061-0.75-4.146
	C27.363,96.77,27.815,97.942,28.591,99.553z M126.648,89.282c-0.292-1.881-1.134-2.859-2.911-3.805
	C124.403,87.257,125.159,88.298,126.648,89.282z M62.831,108.307c-0.928,0.977-1.596,2.049-1.457,3.43
	C62.362,110.803,63.382,109.895,62.831,108.307z M91.996,22.702c1.422,0.483,2.576,1.008,4.234,0.183
	C94.652,22.128,93.484,21.868,91.996,22.702z M125.587,55.276c1.033,1.661,2.188,2.259,3.395,2.798
	C128.38,56.777,127.677,55.628,125.587,55.276z M36.022,32.099c2.422,1.254,2.551,1.277,3.931,0.644
	C38.669,32.262,37.721,31.342,36.022,32.099z M111.889,28.686c-1.548-0.854-2.655-1.377-4.71-1.045
	C108.933,28.688,110.054,29.146,111.889,28.686z M12.005,60.407c0.925-0.829,1.558-1.786,1.553-3.666
	C12.325,58.067,12.162,59.241,12.005,60.407z M14.949,45.528c-1.332,0.983-1.495,2.067-1.239,3.789
	C14.724,48.01,15.223,47.037,14.949,45.528z M64.936,92.614c-1.458,1.551-1.235,2.623-0.34,4.037
	C65.359,95.343,65.025,94.251,64.936,92.614z"/>
</svg>
