<?xml version="1.0" encoding="utf-8"?>
<!-- Generator: Adobe Illustrator 16.0.0, SVG Export Plug-In . SVG Version: 6.00 Build 0)  -->
<!DOCTYPE svg PUBLIC "-//W3C//DTD SVG 1.1//EN" "http://www.w3.org/Graphics/SVG/1.1/DTD/svg11.dtd">
<svg version="1.1" id="Layer_1" xmlns="http://www.w3.org/2000/svg" xmlns:xlink="http://www.w3.org/1999/xlink" x="0px" y="0px"
	 width="141.73px" height="141.73px" viewBox="0 0 141.73 141.73" enable-background="new 0 0 141.73 141.73" xml:space="preserve">
<path fill-rule="evenodd" clip-rule="evenodd" fill="#195F1D" d="M135.687,49.7c-0.252,4.437,0.27,8.139-0.55,11.892
	c-0.498,2.279,1.056,4.595,0.938,7.149c-0.465,10.141,0.363,20.341-0.984,30.436c-0.936,7.012-2.6,10.47-10.63,11.73
	c-5.595,0.878-11.25,1.128-16.905,1.407c-17.699,0.876-35.41,0.76-53.118,0.593c-4.352-0.041-8.7,0.274-13.098-0.965
	c-1.674-0.473-4.259,0.536-6.479,0.454c-5.819-0.215-11.646-0.348-17.412-1.249c-6.822-1.067-9.603-3.78-10.487-10.64
	C6.059,93.491,6.359,86.404,6.07,79.365c-0.284-6.943,0.109-13.85-0.052-20.771c-0.145-6.238,0.1-12.48,0.914-18.682
	c0.867-6.599,3.978-9.792,10.578-10.603c5.949-0.73,11.95-0.847,17.922-1.272c2.012-0.144,3.117,2.775,4.848,1.368
	c1.575-1.28,3.139-1.695,4.991-1.735c4.913-0.105,9.826-0.302,14.739-0.307c12.077-0.012,24.191-0.501,36.22,0.282
	c9.628,0.627,19.344,0.085,28.901,1.854c6.287,1.164,9.373,4.493,9.902,10.957C135.303,43.772,135.505,47.093,135.687,49.7z
	 M16.569,36.326c1.9,1.604,3.438,2.993,5.067,4.263c7.81,6.082,15.572,12.229,23.492,18.163c6.917,5.183,13.705,10.561,21.19,14.952
	c2.756,1.617,5.479,1.766,8.302,0.387c2.093-1.021,4.095-2.188,6.015-3.531c10.3-7.201,20.266-14.848,30.152-22.596
	c4.669-3.658,9.177-7.522,13.842-11.362c-0.385-0.242-0.498-0.366-0.627-0.388c-9.967-1.612-20.007-2.336-30.098-2.326
	c-16.396,0.018-32.798-0.354-49.189,0.38c-1.194,0.054-2.244,0.009-3.097-1.099c-0.817-1.062-1.844-1.413-2.781,0.04
	c-0.756,1.171-1.908,1.33-3.25,1.363C29.353,34.731,23.13,35.079,16.569,36.326z M16.948,104.483
	c5.783,0.741,11.055,1.099,16.347,1.333c2.238,0.099,4.684-0.563,6.638,1.313c0.521,0.5,1.327,0.253,1.834-0.229
	c1.038-0.987,2.246-0.841,3.508-0.764c2.902,0.179,5.81,0.402,8.715,0.388c18.427-0.092,36.863,0.442,55.273-0.809
	c4.877-0.332,9.771-0.504,14.789-1.501c-1.648-1.818-3.465-3.101-5.256-4.396c-9.371-6.774-18.93-13.305-28.065-20.382
	c-3.98-3.083-7.239-4.298-11.163-0.471c-0.453,0.442-1.175,0.606-1.769,0.906c-4.899,2.477-9.759,2.388-14.552-0.275
	c-1.742-0.969-3.472-1.969-5.139-3.06c-1.09-0.714-1.823-0.776-3.012,0.088C42.515,85.765,29.809,94.733,16.948,104.483z
	 M51.875,71.924c-13.28-9.737-25.979-19.755-38.344-30.279c-1.741,7.424-1.496,54.126,0.286,58.296
	C25.813,89.861,38.61,80.873,51.875,71.924z M128.377,100.068c0.889-19.58,1.443-39.079,0.027-59.213
	c-12.321,11.66-25.341,21.342-38.367,31.015c6.471,4.563,12.979,9.025,19.348,13.678C115.754,90.201,122.184,94.789,128.377,100.068
	z"/>
</svg>
