<?xml version="1.0" encoding="utf-8"?>
<!-- Generator: Adobe Illustrator 16.0.0, SVG Export Plug-In . SVG Version: 6.00 Build 0)  -->
<!DOCTYPE svg PUBLIC "-//W3C//DTD SVG 1.1//EN" "http://www.w3.org/Graphics/SVG/1.1/DTD/svg11.dtd">
<svg version="1.1" id="Layer_1" xmlns="http://www.w3.org/2000/svg" xmlns:xlink="http://www.w3.org/1999/xlink" x="0px" y="0px"
	 width="141.73px" height="141.73px" viewBox="0 0 141.73 141.73" enable-background="new 0 0 141.73 141.73" xml:space="preserve">
<g>
	<path fill-rule="evenodd" clip-rule="evenodd" fill="#247123" d="M73.312,25.158c7.592-0.124,15.174-0.086,22.746,0.646
		c13.264,1.282,20.632,7.812,22.006,20.941c1.571,15.016,1.597,30.14-0.095,45.155c-1.374,12.197-8.032,19.095-20.256,20.408
		c-16.799,1.805-33.72,1.944-50.519-0.045c-12.409-1.471-18.682-7.559-20.443-19.896c-2.207-15.465-2.177-31.091-0.027-46.558
		c1.748-12.571,9.11-18.867,21.748-19.928c4.174-0.35,8.364-0.577,12.551-0.697C65.116,25.067,69.216,25.158,73.312,25.158z
		 M74.957,33.196c-6.193,0-12.387-0.039-18.581,0.023c-1.99,0.02-3.979,0.313-5.968,0.475c-10.157,0.82-14.982,5.259-15.698,15.337
		c-0.984,13.856-1.106,27.746,0.21,41.597c0.808,8.504,5.299,12.908,13.823,13.842c8.747,0.959,17.532,1.137,26.323,0.941
		c7.281-0.162,14.596,0.168,21.821-1.002c7.612-1.231,11.454-4.847,12.382-12.469c1.83-15.016,1.619-30.109,0.191-45.133
		c-0.789-8.313-5.375-12.185-13.852-13.042C88.744,33.072,81.853,32.915,74.957,33.196z"/>
	<path fill-rule="evenodd" clip-rule="evenodd" fill="#247123" d="M71.877,91.935c-12.867-0.124-23.39-10.258-23.29-22.43
		C48.692,56.724,59.144,46.78,72.34,46.908c13.039,0.127,23.523,10.324,23.37,22.73C95.556,82.02,84.824,92.06,71.877,91.935z
		 M71.921,53.771c-8.602,0.023-15.888,7.252-15.946,15.821c-0.055,8.117,7.77,15.64,16.246,15.619
		c8.764-0.02,15.959-7.082,16.005-15.709C88.271,60.906,80.85,53.746,71.921,53.771z"/>
	<path fill-rule="evenodd" clip-rule="evenodd" fill="#247123" d="M96.572,40.445c2.766-0.091,5.343,2.172,5.494,4.822
		c0.148,2.613-2.357,5.205-5.044,5.216c-2.847,0.011-5.335-2.185-5.491-4.847C91.372,42.926,93.687,40.541,96.572,40.445z"/>
</g>
</svg>
