<?xml version="1.0" encoding="utf-8"?>
<!-- Generator: Adobe Illustrator 16.0.0, SVG Export Plug-In . SVG Version: 6.00 Build 0)  -->
<!DOCTYPE svg PUBLIC "-//W3C//DTD SVG 1.1//EN" "http://www.w3.org/Graphics/SVG/1.1/DTD/svg11.dtd">
<svg version="1.1" id="Layer_1" xmlns="http://www.w3.org/2000/svg" xmlns:xlink="http://www.w3.org/1999/xlink" x="0px" y="0px"
	 width="141.73px" height="141.73px" viewBox="0 0 141.73 141.73" enable-background="new 0 0 141.73 141.73" xml:space="preserve">
<g>
	<path fill-rule="evenodd" clip-rule="evenodd" fill="#247123" d="M78.907,113.81c-2.241,1.723-4.457,3.481-6.74,5.148
		c-0.777,0.568-0.914,1.336-1.1,2.138c-0.752,3.256-1.869,6.385-3.219,9.439c-0.631,1.43-1.327,3.048-3.191,2.347
		c-1.982-0.747-1.222-2.387-0.607-3.796c2.442-5.595,4.082-11.436,5.396-17.383c0.194-0.874,0.19-1.583-0.234-2.373
		c-1.973-3.671-4.017-7.286-6.665-10.536c-0.597-0.731-1.101-0.99-2.062-0.921c-9.969,0.717-19.354-1.66-28.083-6.216
		C20.324,85.353,10.842,76.201,4.32,64.137c-1.396-2.584-1.196-3.121,1.585-3.838c15.157-3.907,29.954-3.445,43.549,5.03
		C59.2,71.403,64.03,80.585,63.782,92.22c-0.02,0.89,0.266,2.19-0.603,2.522c-0.944,0.36-1.366-0.943-1.931-1.588
		c-5.433-6.19-11.664-11.394-18.897-15.366c-0.356-0.195-0.743-0.354-1.135-0.46c-0.223-0.06-0.484,0.022-1.068,0.065
		c7.618,5.423,13.605,12.198,20.015,18.528c0.743,0.732,1.592,2.573,3.052,0.415c0.489-0.725,1.108,0.38,1.454,0.81
		c1.813,2.254,3.554,4.565,5.517,7.112c0.708-2.936,0.914-5.703,0.906-8.478c-0.019-6.34-0.63-12.63-1.597-18.897
		c-0.201-1.31-1.679-3.35,1.232-3.826c0.436-0.072,0.127-0.501,0.078-0.805c-0.758-4.611-2.032-9.087-3.525-13.504
		c-0.06-0.178-0.326-0.287-0.797-0.678c0.772,5.106,1.492,9.871,2.314,15.304c-2.337-1.751-4.468-3.011-6.189-4.691
		c-10.133-9.89-14.102-22.095-13.202-36.051c0.491-7.611,2.685-14.708,6.579-21.263c2.196-3.697,3.106-3.856,6.27-1.084
		c11.717,10.269,18.24,23.006,17.871,38.787c-0.202,8.613-2.519,16.606-8.553,23.136c-0.333,0.359-0.65,0.481-0.455,1.167
		c1.533,5.376,2.307,10.896,2.943,16.438c0.014,0.121,0.194,0.224,0.398,0.444c1.967-2.37,3.895-4.742,5.887-7.058
		c0.432-0.501,1.103-1.624,1.748-0.827c1.756,2.167,2.47,0.195,3.305-0.721c4.328-4.74,8.822-9.313,13.486-13.721
		c0.457-0.432,1.18-0.696,1.143-2.076c-7.199,3.99-12.838,9.428-18.597,15.396c-1.208-7.042-0.061-13.339,2.843-19.227
		c5.438-11.027,14.834-17.421,26.182-21.158c8.147-2.683,16.545-3.732,25.129-2.68c2.859,0.351,3.157,0.796,2.137,3.499
		c-6.334,16.786-16.812,29.954-33.281,37.791c-6.326,3.011-13.026,4.583-20.07,4.211c-1.186-0.063-1.707,0.55-2.228,1.221
		c-2.292,2.962-4.572,5.938-6.724,9.004c-0.592,0.844-0.994,2.005-1.018,3.031c-0.137,5.745-0.898,11.441-1.354,17.441
		c1.758-1.19,3.279-2.29,4.875-3.271c0.829-0.51,0.615-1.284,0.758-1.973c1.01-4.871,3.682-8.724,7.131-12.207
		c11.483-11.595,25.121-10.626,39.228-6.808c2.229,0.604,4.303,1.766,6.47,2.613c1.41,0.552,1.607,1.39,1.014,2.724
		c-0.455,1.021-1.162,1.796-1.893,2.577c-9.903,10.579-22.001,16.761-36.514,17.711c-4.635,0.303-9.223-0.883-13.741-1.993
		c-0.548-0.681-0.087-0.939,0.458-1.281c5.779-3.625,11.64-7.094,17.959-9.728c0.75-0.313,1.64-0.513,2.35-1.487
		c-0.875,0.067-1.469,0.029-2.018,0.169c-6.08,1.544-11.867,3.788-17.135,7.256c-1.692,1.114-3.848,1.949-2.834,4.705
		C79.19,113.487,78.995,113.668,78.907,113.81z M104.345,63.407c-0.445-0.125-0.831-0.022-1.16,0.301
		c-0.994,0.696-1.987,1.392-2.981,2.087c0.011,0.175,0.021,0.349,0.032,0.524c0.168-0.04,0.336-0.079,0.504-0.118
		c0.867-0.789,2.338-1.005,2.417-2.537c0.552,0.453,0.841-0.12,1.222-0.311l-0.07-0.076L104.345,63.407z"/>
	<polygon fill-rule="evenodd" clip-rule="evenodd" fill="#F7F9F7" points="104.345,63.407 104.308,63.279 104.38,63.352 	"/>
</g>
</svg>
