<?xml version="1.0" encoding="utf-8"?>
<!-- Generator: Adobe Illustrator 16.0.0, SVG Export Plug-In . SVG Version: 6.00 Build 0)  -->
<!DOCTYPE svg PUBLIC "-//W3C//DTD SVG 1.1//EN" "http://www.w3.org/Graphics/SVG/1.1/DTD/svg11.dtd">
<svg version="1.1" id="Layer_1" xmlns="http://www.w3.org/2000/svg" xmlns:xlink="http://www.w3.org/1999/xlink" x="0px" y="0px"
	 width="141.73px" height="141.73px" viewBox="0 0 141.73 141.73" enable-background="new 0 0 141.73 141.73" xml:space="preserve">
<path fill-rule="evenodd" clip-rule="evenodd" fill="#195F1D" d="M53.136,74.105c-2.039-3.002-3.525-5.734-4.865-8.539
	c-4.154-8.695-5.928-17.593-2.502-27.029c4.196-11.559,15.598-19.099,28.055-18.404c12.416,0.692,22.753,9.318,25.668,21.272
	c2.357,9.665-0.134,18.45-4.616,26.91c-1.021,1.927-2.155,3.795-3.286,5.774c6.748-2.231,12.797,0.679,18.979,2.151
	c7.145,1.701,7.094,1.809,10.018,8.512c4.63,10.613,9.587,21.076,14.672,31.478c0.612,1.253,1.108,2.47,0.105,3.719
	c-0.984,1.226-2.332,1.14-3.672,0.85c-8.652-1.875-17.307-3.739-25.943-5.682c-1.344-0.302-2.606-0.313-3.915-0.014
	c-8.627,1.978-17.26,3.926-25.878,5.938c-2.39,0.559-4.717,0.559-7.105,0.006c-8.624-1.997-17.265-3.924-25.893-5.907
	c-1.266-0.291-2.502-0.311-3.754-0.04c-8.653,1.871-17.305,3.747-25.958,5.619c-0.454,0.099-0.911,0.227-1.37,0.244
	c-2.558,0.093-3.822-1.783-2.701-4.098c5.977-12.339,11.831-24.734,17.308-37.304c0.526-1.208,1.457-1.941,2.649-2.233
	c5.557-1.361,11.145-2.596,16.69-4C48.198,72.727,50.393,73.471,53.136,74.105z M16.216,114.549c0.39-0.003,0.793,0.061,1.167-0.02
	c7.284-1.557,14.53-3.304,21.892-4.471c0.962-0.152,1.133-0.685,1.308-1.445c0.43-1.881,0.945-3.742,1.381-5.621
	c0.19-0.825,0.649-1.047,1.439-0.949c0.992,0.123,0.961,0.804,0.824,1.47c-0.347,1.694-0.727,3.384-1.152,5.061
	c-0.248,0.974-0.041,1.403,1.043,1.61c2.672,0.512,5.315,1.181,7.967,1.795c5.831,1.351,11.662,2.696,17.488,4.069
	c1.244,0.294,2.001,0.269,1.803-1.402c-0.164-1.378-0.004-2.793-0.013-4.191c-0.004-0.682,0.18-1.216,0.95-1.249
	c0.85-0.037,1.155,0.483,1.159,1.271c0.007,1.266,0.116,2.536,0.032,3.794c-0.104,1.539,0.208,2.074,1.957,1.658
	c8.543-2.031,17.113-3.943,25.689-5.828c0.99-0.218,1.178-0.557,0.965-1.454c-0.367-1.553-0.651-3.126-0.978-4.689
	c-0.176-0.843-0.241-1.632,0.86-1.873c1.021-0.224,1.229,0.495,1.412,1.244c0.408,1.681,0.85,3.354,1.229,5.041
	c0.243,1.079,0.728,1.636,1.95,1.82c2.561,0.387,5.086,1.016,7.622,1.565c4.844,1.053,9.685,2.119,14.717,3.222
	c-2.661-5.628-5.234-11.027-7.755-16.451c-0.324-0.696-0.743-0.93-1.457-1.103c-1.803-0.434-3.579-0.989-5.346-1.56
	c-0.574-0.186-1.505-0.299-1.205-1.226c0.268-0.826,1.018-0.909,1.83-0.66c1.396,0.426,2.81,0.794,4.217,1.185
	c0.165-0.007,0.33-0.015,0.494-0.021c-0.071-0.093-0.143-0.186-0.215-0.277c-1.768-4.08-3.547-8.155-5.289-12.245
	c-0.184-0.431-0.448-0.633-0.847-0.73c-4.872-1.198-9.745-2.392-14.677-3.602c-0.183,1.504,0.24,2.719,0.41,3.958
	c0.123,0.903,0.564,1.872-0.868,2.147c-1.452,0.277-1.177-0.986-1.438-1.664c-0.557-1.447,0.059-3.793-1.256-4.303
	c-1.174-0.455-2.981,0.725-4.512,1.179c-0.255,0.076-0.515,0.151-0.776,0.188c-2.518,0.346-4.252,1.692-5.748,3.768
	c-2.688,3.728-5.813,7.12-9.078,10.359c-2.379,2.359-3.922,2.315-6.29-0.061c-3.526-3.54-6.926-7.192-9.9-11.226
	c-0.571-0.774-1.004-1.796-2.013-2.112c-2.284-0.715-4.606-1.306-6.89-2.021c-0.783-0.245-1.053-0.04-1.203,0.714
	c-0.753,3.782-1.51,7.565-2.333,11.332c-0.235,1.073,0.157,1.16,1.092,1.224c2.87,0.194,5.627,0.963,8.33,1.932
	c0.586,0.21,1.2,0.381,1,1.2c-0.233,0.954-0.894,0.734-1.582,0.571c-2.719-0.642-5.475-1.149-8.155-1.923
	c-0.964-0.278-1.138-0.09-1.287,0.729c-0.215,1.177-0.461,2.353-0.765,3.51c-0.169,0.644-0.443,1.342-1.327,1.182
	c-0.927-0.168-0.797-0.879-0.727-1.568c0.141-1.369,0.679-2.696,0.505-4.192c-2.531,0.521-4.988,1.017-7.44,1.541
	c-0.625,0.134-1.202,0.267-1.462-0.532c-0.25-0.77,0.187-1.122,0.838-1.298c2.543-0.684,5.053-1.7,7.76-1.148
	c0.897,0.184,0.877-0.454,0.958-0.879c0.727-3.785,1.416-7.578,2.093-11.373c0.168-0.947,0.093-1.487-1.222-1.14
	c-4.431,1.172-8.899,2.202-13.355,3.279c-0.509,0.124-1.096,0.081-1.344,0.688c-1.833,4.483-4.256,8.713-5.745,13.345
	c-0.044,0.085-0.088,0.17-0.132,0.255c0.107-0.024,0.214-0.049,0.32-0.074c1.387-0.441,2.773-0.885,4.16-1.327
	c0.718-0.228,1.35-0.165,1.609,0.654c0.29,0.915-0.376,1.144-1.056,1.317c-1.929,0.495-3.768,1.237-5.612,1.973
	c-0.513,0.204-0.983,0.333-1.221,0.883c-2.206,5.086-4.922,9.942-6.816,15.169c-0.074,0.045-0.147,0.089-0.221,0.133
	c0.043,0.034,0.086,0.068,0.13,0.102C16.148,114.699,16.182,114.625,16.216,114.549z M95.375,47.366
	c0.76-13.512-14.514-25.719-29.727-21.229C53.956,29.588,46.238,42.403,50.044,55.51c3.873,13.335,12.217,23.767,21.514,33.614
	c0.809,0.858,1.103,0.335,1.667-0.232c5.896-5.934,10.944-12.525,15.217-19.703C92.008,63.2,94.892,56.946,95.375,47.366z"/>
<path fill-rule="evenodd" clip-rule="evenodd" fill="#FAFBFB" d="M119.494,94.862c0.072,0.092,0.144,0.185,0.215,0.277
	c-0.164,0.007-0.329,0.015-0.494,0.022C119.307,95.062,119.4,94.963,119.494,94.862z"/>
<path fill-rule="evenodd" clip-rule="evenodd" fill="#FAFBFB" d="M25.142,95.871c-0.106,0.025-0.213,0.05-0.32,0.074
	c0.044-0.085,0.088-0.17,0.132-0.255C25.016,95.751,25.079,95.811,25.142,95.871z"/>
<path fill-rule="evenodd" clip-rule="evenodd" fill="#FAFBFB" d="M16.216,114.55c-0.033,0.075-0.067,0.149-0.101,0.225
	c-0.043-0.033-0.087-0.067-0.13-0.102c0.073-0.044,0.147-0.088,0.221-0.133L16.216,114.55z"/>
<path fill-rule="evenodd" clip-rule="evenodd" fill="#195F1D" d="M62.633,95.383c2.283,0.715,4.67,1.508,7.087,2.199
	c1.847,0.529,3.644,0.788,5.585-0.066c2.052-0.902,4.296-1.367,6.453-2.031c0.669-0.207,1.33-0.395,1.66,0.482
	c0.338,0.898-0.299,1.177-0.957,1.407c-2.682,0.938-5.291,2.174-8.179,2.325c-0.89,0.047-0.769,0.567-0.788,1.041
	c-0.055,1.263-0.071,2.529-0.053,3.792c0.012,0.809-0.276,1.257-1.129,1.287c-0.863,0.03-0.945-0.546-0.982-1.182
	c-0.004-0.066-0.024-0.136-0.011-0.198c0.769-3.647-1.22-4.947-4.429-5.494c-1.681-0.285-3.345-0.885-4.87-1.729
	c-0.435-0.241-1.111-0.354-1.005-1.063C61.151,95.243,61.962,95.679,62.633,95.383z"/>
<path fill-rule="evenodd" clip-rule="evenodd" fill="#195F1D" d="M108.058,94.505c-1.82-0.344-3.65-0.645-5.458-1.048
	c-0.925-0.206-1.218,0.027-1.072,0.959c0.153,0.982,0.228,1.977,0.339,2.966c0.071,0.634,0.03,1.226-0.727,1.41
	c-0.93,0.227-1.167-0.528-1.314-1.128c-0.66-2.698-1.432-5.378-1.568-8.178c-0.026-0.529-0.043-1.075-0.186-1.579
	c-0.225-0.797-0.292-1.508,0.724-1.682c0.853-0.146,1.301,0.509,1.279,1.188c-0.112,3.563,1.828,4.604,5.038,4.467
	c1.086-0.047,2.193,0.44,3.291,0.687c0.648,0.146,1.131,0.461,0.999,1.22C109.269,94.552,108.699,94.659,108.058,94.505z"/>
<path fill-rule="evenodd" clip-rule="evenodd" fill="#195F1D" d="M96.344,91.577c0.764,0.016,1.444,0.2,1.62,0.962
	c0.226,0.979-0.688,0.982-1.273,1.129c-2.315,0.582-4.642,1.119-6.968,1.658c-0.743,0.173-1.533,0.275-1.742-0.732
	c-0.192-0.929,0.612-1.086,1.222-1.245C91.576,92.729,93.963,92.163,96.344,91.577z"/>
<path fill-rule="evenodd" clip-rule="evenodd" fill="#195F1D" d="M85.5,49.428c0.023,7.333-5.752,13.045-13.225,13.082
	c-7.452,0.036-13.303-5.808-13.29-13.276c0.013-7.542,5.746-13.416,13.147-13.471C79.629,35.708,85.476,41.685,85.5,49.428z
	 M64.154,49.287c0.017,4.534,3.792,8.352,8.205,8.298c4.428-0.055,7.989-3.879,7.961-8.549c-0.027-4.444-3.698-8.092-8.148-8.096
	C67.538,40.936,64.136,44.477,64.154,49.287z"/>
</svg>
