<?xml version="1.0" encoding="utf-8"?>
<!-- Generator: Adobe Illustrator 16.0.0, SVG Export Plug-In . SVG Version: 6.00 Build 0)  -->
<!DOCTYPE svg PUBLIC "-//W3C//DTD SVG 1.1//EN" "http://www.w3.org/Graphics/SVG/1.1/DTD/svg11.dtd">
<svg version="1.1" id="Layer_1" xmlns="http://www.w3.org/2000/svg" xmlns:xlink="http://www.w3.org/1999/xlink" x="0px" y="0px"
	 width="141.73px" height="141.73px" viewBox="0 0 141.73 141.73" enable-background="new 0 0 141.73 141.73" xml:space="preserve">
<path fill-rule="evenodd" clip-rule="evenodd" fill="#195F1D" d="M13.009,42.992c0.076-6.068,1.821-11.182,5.177-15.742
	c4.248-5.774,9.488-10.46,15.58-14.231c3.21-1.986,6.406-1.945,9.336,0.251c8.589,6.434,14.481,14.884,17.569,25.126
	c2.124,7.044-0.047,12.92-5.906,17.446c-2.528,1.952-3.045,3.98-1.773,6.938c1.56,3.627,4.059,6.65,6.553,9.668
	c4.417,5.344,9.245,10.246,14.914,14.285c5.732,4.086,7.57,4.043,12.948-0.369c2.455-2.014,4.99-3.834,8.273-4.361
	c5.669-0.908,10.47,1.352,15.03,4.156c6.946,4.271,12.512,10.16,17.969,16.123c1.463,1.598,1.499,4.439,0.129,6.293
	c-4.693,6.352-10.168,11.928-17.034,15.924c-8.815,5.133-17.94,5.035-27.073,0.912c-17.641-7.965-32.698-19.434-45.471-33.938
	c-9.121-10.355-17.02-21.541-22.641-34.201C14.525,52.627,12.89,47.811,13.009,42.992z M97.589,122.14
	c6.314,0.145,11.593-2.801,16.485-6.787c0.941-0.768,0.398-1.244,0.057-1.859c-5.543-9.988-13.82-16.439-24.904-19.279
	c-0.855-0.219-1.562-0.189-2.361,0.268c-4.545,2.594-9.07,1.979-13.23-0.709c-11.232-7.26-20.357-16.59-26.656-28.467
	c-1.854-3.496-1.966-7.305,0.438-10.669c1.089-1.524,0.982-2.802,0.468-4.35c-1.938-5.838-5.039-11.056-8.769-15.87
	c-2.591-3.346-5.381-6.578-8.879-9.069c-0.627-0.446-1.172-1.134-2.093-0.194c-3.945,4.023-7.494,8.205-8.542,14.042
	c-1.206,6.718,1.015,12.657,3.917,18.414c7.153,14.185,16.818,26.521,28.179,37.556c10.833,10.521,22.779,19.426,36.959,25.008
	C91.448,121.273,94.283,122.23,97.589,122.14z M52.18,49.646c2.982-2.761,3.054-6.019,2.152-9.334
	c-2.064-7.589-6.349-13.916-11.941-19.29c-4.732-4.548-3.556-4.162-8.591-0.502c-1.54,1.12-0.956,1.515,0.101,2.419
	C42.298,30.124,48.205,39.037,52.18,49.646z M118.191,111.81c1.484-1.689,2.741-3.238,4.126-4.662
	c0.936-0.961,0.997-1.582-0.02-2.607c-3.4-3.426-6.799-6.861-10.616-9.814c-3.556-2.752-7.338-5.141-11.766-6.363
	C96.72,87.48,94.4,88.84,91.951,90.81C101.601,93.873,110.434,99.236,118.191,111.81z"/>
</svg>
