<?xml version="1.0" encoding="utf-8"?>
<!-- Generator: Adobe Illustrator 16.0.0, SVG Export Plug-In . SVG Version: 6.00 Build 0)  -->
<!DOCTYPE svg PUBLIC "-//W3C//DTD SVG 1.1//EN" "http://www.w3.org/Graphics/SVG/1.1/DTD/svg11.dtd">
<svg version="1.1" id="Layer_1" xmlns="http://www.w3.org/2000/svg" xmlns:xlink="http://www.w3.org/1999/xlink" x="0px" y="0px"
	 width="141.73px" height="141.73px" viewBox="0 0 141.73 141.73" enable-background="new 0 0 141.73 141.73" xml:space="preserve">
<path fill-rule="evenodd" clip-rule="evenodd" fill="#247123" d="M72.12,107.408c-10.292-0.148-22.292,0.357-34.262-0.693
	c-1.986-0.172-3.987-0.395-5.93-0.828c-8.647-1.928-13.523-7.096-14.652-16.734c-1.584-13.527-1.724-27.146-0.037-40.675
	c1.293-10.368,6.577-15.275,16.936-16.781c6.933-1.008,13.916-1.288,20.912-1.286c15.193,0.004,30.389-0.389,45.578,0.182
	c5.181,0.195,10.366,0.541,15.456,1.737c6.43,1.512,10.5,5.417,12.361,11.73c1.229,4.165,1.631,8.432,1.666,12.739
	c0.086,10.487,0.723,21.004-0.68,31.44c-1.646,12.252-7.307,17.385-19.701,18.459C97.797,107.738,85.803,107.386,72.12,107.408z
	 M92.947,68.907c-10.415-5.71-20.422-11.197-30.567-16.759c0,11.324,0,22.301,0,33.482C72.593,80.043,82.553,74.594,92.947,68.907z"
	/>
</svg>
