<?xml version="1.0" encoding="utf-8"?>
<!-- Generator: Adobe Illustrator 16.0.0, SVG Export Plug-In . SVG Version: 6.00 Build 0)  -->
<!DOCTYPE svg PUBLIC "-//W3C//DTD SVG 1.1//EN" "http://www.w3.org/Graphics/SVG/1.1/DTD/svg11.dtd">
<svg version="1.1" id="Layer_1" xmlns="http://www.w3.org/2000/svg" xmlns:xlink="http://www.w3.org/1999/xlink" x="0px" y="0px"
	 width="141.73px" height="141.73px" viewBox="0 0 141.73 141.73" enable-background="new 0 0 141.73 141.73" xml:space="preserve">
<path fill="#247123" d="M136.365,70.49c0,5.039-4.242,9.125-9.476,9.125H10.841c-5.233,0-9.476-4.086-9.476-9.125l0,0
	c0-5.04,4.243-9.125,9.476-9.125h116.048C132.123,61.365,136.365,65.45,136.365,70.49L136.365,70.49z"/>
<text transform="matrix(1 0 0 1 7.115 74.115)" fill="#FFFFFF" font-family="'Arial-BoldMT'" font-size="10">Acesse o acervo digital</text>
<g>
	<line fill="#FFFFFF" x1="130.973" y1="70.49" x2="131.257" y2="70.49"/>
	<g>
		<path fill="#FFFFFF" d="M121.613,76.25c-0.179-0.279-0.096-0.65,0.184-0.828l7.743-4.932l-7.743-4.931
			c-0.279-0.178-0.362-0.55-0.184-0.829c0.178-0.279,0.551-0.36,0.828-0.184l8.538,5.438c0.173,0.11,0.277,0.301,0.277,0.506
			s-0.104,0.396-0.277,0.506l-8.538,5.437c-0.1,0.063-0.212,0.094-0.321,0.094C121.922,76.527,121.727,76.429,121.613,76.25z"/>
	</g>
</g>
</svg>
