<?xml version="1.0" encoding="utf-8"?>
<!-- Generator: Adobe Illustrator 16.0.0, SVG Export Plug-In . SVG Version: 6.00 Build 0)  -->
<!DOCTYPE svg PUBLIC "-//W3C//DTD SVG 1.1//EN" "http://www.w3.org/Graphics/SVG/1.1/DTD/svg11.dtd">
<svg version="1.1" id="Layer_1" xmlns="http://www.w3.org/2000/svg" xmlns:xlink="http://www.w3.org/1999/xlink" x="0px" y="0px"
	 width="141.73px" height="141.73px" viewBox="0 0 141.73 141.73" enable-background="new 0 0 141.73 141.73" xml:space="preserve">
<g>
	<path fill-rule="evenodd" clip-rule="evenodd" fill="#277222" d="M41.161,120.649c-0.699-0.411-1.21,0.175-1.786,0.36
		c-0.315,0.102-0.603,0.586-0.916,0.107c-0.261-0.399-0.002-0.752,0.327-1.037c0.513-0.444,5.826-2.617,6.524-2.543
		c3.108,0.332,4.874-1.77,6.765-3.656c0.321-0.32,0.268-0.741,0.232-1.136c-0.158-1.762-0.253-3.522,0.002-5.282
		c0.085-0.586-0.132-1.069-0.52-1.451c-2.232-2.195-2.606-5.101-3.007-7.969c-0.14-1.001-0.387-2.039-0.063-3.074
		c0.048-0.153-0.077-0.381-0.165-0.553c-1.626-3.196-1.756-6.57-1.189-10.023c0.045-0.275,0.039-0.512-0.051-0.774
		c-0.963-2.818-0.904-5.773-1.139-8.688c-0.015-0.191-0.008-0.472,0.109-0.572c0.823-0.713,0.52-1.572,0.467-2.465
		c-0.105-1.778,0.203-3.523,0.92-5.17c0.535-1.228,1.066-1.318,1.964-0.365c0.25,0.266,0.475,0.558,0.7,0.847
		c0.215,0.277,0.416,0.566,0.747,1.021c0.131-1.559-0.102-2.892-0.258-4.221c-0.807-6.859-2.186-13.611-3.803-20.32
		c-0.959-3.981-1.987-7.956-2.708-11.982c-0.845-4.719,0.619-8.827,3.504-12.683c3.177-4.245,7.41-4.933,12.154-4.513
		c2.533,0.224,4.986,0.869,7.338,1.851c1.26,0.526,2.287,1.343,2.959,2.57c0.419,0.766,0.463,1.523,0.048,2.288
		c-1.685,3.105-4.23,4.902-7.815,5.085c-1.654,0.084-2.876-0.524-3.605-2.114c-0.638-1.39-1.395-2.738-2.459-3.861
		c-1.86-1.96-5.324-1.692-6.915,0.516c-2.46,3.412-2.991,7.296-2.219,11.26c1.12,5.751,2.676,11.417,3.848,17.159
		c1.025,5.021,2.112,10.042,2.634,15.154c0.013,0.125,0.06,0.246,0.104,0.419c0.125-0.069,0.221-0.094,0.269-0.155
		c1.018-1.294,1.402-1.241,2.06,0.262c0.381,0.87,0.597,1.818,1.219,2.688c0.467-0.826,0.858-1.595,1.327-2.313
		c0.222-0.338,0.499-0.805,1.018-0.648c0.476,0.143,0.377,0.64,0.454,1.021c0.076,0.379-0.022,0.796,0.289,1.223
		c0.578-0.456,0.854-1.109,1.222-1.669c3.951-5.999,7.051-12.383,8.688-19.417c0.651-2.801,0.617-5.693,1.076-8.522
		c0.779-4.807,1.624-9.592,3.397-14.161c0.581-1.498,1.247-2.958,2.179-4.261c2.621-3.661,6.343-4.755,10.572-4.039
		c3.21,0.544,6.183,1.851,8.727,3.984c1.04,0.873,1.854,1.903,2.393,3.153c0.488,1.133,0.393,2.185-0.561,3.006
		c-2.414,2.081-5.11,3.629-8.337,4.012c-1.837,0.218-2.595-0.318-3.267-2.035c-0.667-1.703-1.121-3.492-2.082-5.077
		c-0.47-0.774-0.985-1.509-1.685-2.091c-1.194-0.995-2.213-0.865-3.157,0.36c-1.258,1.631-1.977,3.529-2.744,5.41
		c-1.568,3.845-1.951,7.943-2.6,11.983c-0.585,3.648-0.628,7.382-1.629,10.963c-1.684,6.02-4.463,11.542-7.799,16.8
		c-0.26,0.408-0.609,0.759-0.977,1.21c0.7-0.029,1.064-0.494,1.525-0.774c0.324-0.197,0.657-0.567,1.068-0.224
		c0.374,0.313,0.096,0.686-0.031,1.008c-0.244,0.613-0.525,1.211-0.6,1.935c0.441,0.082,0.877-0.44,1.224-0.051
		c0.32,0.359,0.122,0.837,0.063,1.255c-0.236,1.662-0.497,3.322-0.773,5.145c0.66-0.375,1.166-0.671,1.682-0.951
		c0.21-0.114,0.443-0.17,0.65,0.017c0.214,0.191,0.164,0.438,0.063,0.646c-0.662,1.345-0.781,2.817-1.002,4.261
		c-0.088,0.572-0.523,1.224,0.184,1.735c0.047,0.034,0.05,0.204,0.01,0.276c-0.84,1.532-0.465,3.277-0.865,4.885
		c-0.057,0.226-0.096,0.462-0.191,0.671c-0.346,0.762-0.848,1.479,0.181,2.184c0.372,0.255,0.294,0.866,0.244,1.33
		c-0.079,0.728-0.203,1.451-0.313,2.175c-0.481,3.193-1.067,6.372-1.292,9.599c-0.132,1.909-0.801,3.566-2.191,4.895
		c-0.564,0.539-0.799,1.171-0.902,1.933c-0.292,2.175-0.014,4.309,0.336,6.444c0.092,0.563,0.592,0.6,0.984,0.699
		c0.846,0.216,1.633,0.521,2.388,0.976c1.046,0.632,1.835,1.469,2.199,2.615c0.269,0.845,0.759,1.14,1.6,1.152
		c2.126,0.032,4.175,0.394,6.006,1.578c0.842,0.545,1.69,1.082,2.208,1.979c0.181,0.313,0.392,0.752,0.022,0.994
		c-0.398,0.261-0.751-0.014-0.962-0.422c-0.322-0.623-0.892-0.911-1.619-1.218c0.174,0.661,0.335,1.193,0.447,1.735
		c0.053,0.252,0.071,0.57-0.295,0.635c-0.313,0.055-0.482-0.129-0.575-0.424c-0.227-0.715-0.407-1.463-1.258-1.998
		c-0.029,0.711,0.101,1.369-0.446,1.82c-0.206,0.171-0.495,0.505-0.654,0.314c-0.697-0.837-1.095,0.013-1.631,0.192
		c-0.453,0.153-0.555,0.441-0.523,0.832c0.029,0.372-0.014,0.677-0.451,0.744c-0.374,0.058-0.744,0.053-0.994-0.297
		c-0.213-0.299-0.242-0.64-0.031-0.935c0.191-0.266,0.464-0.472,0.682-0.721c0.189-0.217,0.75-0.213,0.491-0.699
		c-0.245-0.46-0.659-0.645-1.183-0.477c-0.185,0.061-0.438,0.26-0.529,0.199c-0.783-0.521-1.223-0.629-1.174,0.602
		c0.013,0.321-0.563,0.234-0.768-0.085c-0.176-0.275-0.255-0.612-0.383-0.92c-0.238-0.577-0.635-0.874-1.254-0.58
		c-0.618,0.294-0.858-0.036-0.998-0.545c-0.243-0.883-0.939-1.362-1.652-2.005c-0.033,0.251-0.063,0.368-0.064,0.486
		c-0.004,0.359,0.343,0.877-0.26,0.988c-0.498,0.092-0.865-0.27-1.077-0.73c-0.429-0.938-0.854-1.876-1.28-2.813
		c-0.088-0.192-0.09-0.593-0.391-0.433c-0.429,0.227-0.814,0.57-1.15,0.928c-0.143,0.151,0.084,0.366,0.257,0.467
		c1.012,0.588,1.5,1.483,1.54,2.631c0.022,0.629,0.415,0.859,0.949,0.963c1.042,0.202,1.936,0.7,2.736,1.378
		c0.496,0.42,0.793,2.109,0.398,2.563c-0.306,0.353-0.787,0.313-1.059-0.012c-0.326-0.391-0.723-0.822-0.585-1.423
		c0.21-0.92-0.501-0.834-1.022-0.954c-0.654-0.15-0.684,0.213-0.667,0.731c0.02,0.584-0.743,1.018-0.373,1.726
		c0.044,0.085-0.316,0.192-0.516,0.145c-0.391-0.093-0.668-0.33-0.694-0.747c-0.025-0.409,0.138-0.776,0.331-1.136
		c0.212-0.397,0.18-0.771-0.222-1.054c-0.454-0.318-0.558,0.072-0.728,0.351c-0.092,0.151-0.347,0.282-0.393,0.139
		c-0.251-0.789-1.15-0.931-1.513-1.587c-0.132-0.239-0.259-0.508-0.043-0.737c0.246-0.262,0.486,0.046,0.731,0.079
		c0.279,0.038,0.442,0.531,0.768,0.272c0.291-0.229,0.16-0.623,0.149-0.945c-0.022-0.683-0.522-1.021-1.071-1.161
		c-0.717-0.185-0.919,0.565-1.247,0.955c-0.403,0.479-0.444,1.097,0.015,1.651c0.372,0.45,0.83,0.792,1.138,1.342
		c0.524,0.936-0.538,1.505-0.355,2.321c0.023,0.106-0.277,0.176-0.412,0.035c-0.457-0.475-1.578,0.527-1.667-0.76
		c-0.048-0.697-0.133-1.391,0.067-2.083c0.06-0.208,0.136-0.491-0.178-0.587c-0.223-0.069-0.341,0.107-0.475,0.271
		c-0.229,0.277-0.508,0.513-0.75,0.78c-0.117,0.129-0.231,0.236-0.415,0.23c-0.794-0.023-2.265-1.188-2.367-2.018
		c-0.1-0.813-0.523-1.309-1.157-1.717c-0.645,0.96-0.725,1.788,0.342,2.546c0.653,0.463,0.782,1.29,0.994,2.021
		c0.081,0.279,0.122,0.647-0.311,0.702c-0.316,0.039-0.592-0.103-0.69-0.448c-0.091-0.32-0.164-0.646-0.256-0.966
		c-0.063-0.222-0.108-0.5-0.452-0.285c-0.737,0.461-0.815-0.131-0.986-0.604c-0.081-0.226-0.055-0.608-0.46-0.505
		c-0.371,0.097-0.257,0.397-0.197,0.659c0.109,0.476,0.382,1.007-0.216,1.336c-0.386,0.213-0.782,0.091-1.091-0.229
		c-0.45-0.463-0.688-0.991-0.399-1.628c0.228-0.505,0.678-0.812,1.096-1.143c0.235-0.186,0.521-0.335,0.69-0.568
		c0.327-0.451,0.316-1.08-0.03-1.389c-0.387-0.346-0.562,0.289-0.755,0.524c-0.584,0.711-1.228,1.226-2.157,1.496
		c-1.2,0.351-1.977,1.313-2.616,2.355c-0.415,0.678-0.838,1.099-1.458,0.201c-0.123-0.178-0.308-0.333-0.501-0.214
		c-1.238,0.758-1.438-0.512-1.711-1.053c-0.344-0.684,0.535-0.913,0.985-1.259c0.051-0.04,0.089-0.097,0.133-0.146
		c1.074-0.877,2.316-1.372,3.681-1.524c0.95-0.107,1.703-0.503,2.284-1.248c0.102-0.129,0.242-0.271,0.186-0.437
		c-0.083-0.243-0.326-0.176-0.515-0.182c-0.563-0.016-0.923,0.288-1.194,0.75c-0.368,0.625-0.898,1.024-1.604,1.249
		C41.771,121.403,41.359,121.309,41.161,120.649z"/>
	<path fill-rule="evenodd" clip-rule="evenodd" fill="#277222" d="M102.175,29.319c-0.633-0.1-1.298-0.333-1.268-1.102
		c0.03-0.752,0.688-1.03,1.371-1.006c0.704,0.024,1.104,0.479,1.101,1.171C103.376,29.12,102.832,29.288,102.175,29.319z"/>
	<path fill-rule="evenodd" clip-rule="evenodd" fill="#277222" d="M93.414,31.708c-0.703-0.118-1.4-0.236-1.377-0.996
		c0.024-0.768,0.682-1.012,1.369-0.992c0.654,0.02,1.25,0.318,1.233,1.031C94.622,31.505,93.902,31.565,93.414,31.708z"/>
	<path fill-rule="evenodd" clip-rule="evenodd" fill="#277222" d="M95.523,40.324c-0.626-0.126-1.327-0.253-1.287-1.077
		c0.032-0.668,0.585-0.942,1.209-0.904c0.641,0.04,1.219,0.335,1.249,1.037C96.725,40.093,96.137,40.266,95.523,40.324z"/>
	<path fill-rule="evenodd" clip-rule="evenodd" fill="#277222" d="M97.613,48.923c-0.649-0.104-1.282-0.223-1.263-1.024
		c0.016-0.646,0.468-0.942,1.081-0.904c0.653,0.04,1.197,0.346,1.245,1.053C98.726,48.771,98.126,48.845,97.613,48.923z"/>
	<path fill-rule="evenodd" clip-rule="evenodd" fill="#277222" d="M100.292,44.477c-0.581-0.071-1.093-0.274-1.055-0.945
		c0.039-0.694,0.58-0.923,1.192-0.925c0.56-0.001,0.998,0.273,0.993,0.874C101.417,44.177,100.898,44.408,100.292,44.477z"/>
	<path fill-rule="evenodd" clip-rule="evenodd" fill="#277222" d="M92.251,37.359c-0.623-0.096-1.166-0.299-1.171-1.07
		c-0.004-0.53,0.308-0.803,0.819-0.762c0.677,0.055,1.276,0.363,1.343,1.08C93.296,37.177,92.745,37.298,92.251,37.359z"/>
	<path fill-rule="evenodd" clip-rule="evenodd" fill="#277222" d="M99.98,35.114c-0.509-0.092-1.128-0.098-1.111-0.83
		c0.014-0.57,0.416-0.884,0.983-0.889c0.609-0.006,1.163,0.199,1.184,0.9C101.055,34.942,100.477,35.008,99.98,35.114z"/>
	<path fill-rule="evenodd" clip-rule="evenodd" fill="#277222" d="M98.001,28.467c-0.567-0.076-1.125-0.241-1.15-0.89
		c-0.021-0.506,0.341-0.883,0.895-0.864c0.614,0.021,1.158,0.313,1.207,0.959C98.993,28.225,98.5,28.422,98.001,28.467z"/>
	<path fill-rule="evenodd" clip-rule="evenodd" fill="#277222" d="M97.896,29.493c0.503,0.079,1.06,0.214,1.063,0.957
		c0.004,0.558-0.411,0.723-0.875,0.722c-0.635,0-1.114-0.292-1.149-0.967C96.905,29.652,97.34,29.512,97.896,29.493z"/>
</g>
</svg>
