<?xml version="1.0" encoding="utf-8"?>
<!-- Generator: Adobe Illustrator 16.0.0, SVG Export Plug-In . SVG Version: 6.00 Build 0)  -->
<!DOCTYPE svg PUBLIC "-//W3C//DTD SVG 1.1//EN" "http://www.w3.org/Graphics/SVG/1.1/DTD/svg11.dtd">
<svg version="1.1" id="Layer_1" xmlns="http://www.w3.org/2000/svg" xmlns:xlink="http://www.w3.org/1999/xlink" x="0px" y="0px"
	 width="141.73px" height="141.73px" viewBox="0 0 141.73 141.73" enable-background="new 0 0 141.73 141.73" xml:space="preserve">
<g>
	<path fill-rule="evenodd" clip-rule="evenodd" fill="#247123" d="M39.082,66.861c-8.527-0.195-16.974-0.9-24.806-4.685
		C4.922,57.655,2.101,50.975,5.919,41.259C11.313,27.536,21.5,18.369,35.068,13.26c14.582-5.491,29.014-4.321,42.68,3.276
		c9.775,5.435,17.55,12.954,21.401,23.709c3.38,9.437,0.192,15.852-9.056,19.621c-6.993,2.85-14.288,4.436-21.745,5.28
		c-2.238,0.253-2.915,0.968-2.316,3.155c0.873,3.186,2.237,6.044,5.117,7.818c1.847,1.138,2.24,2.281,0,2.909
		c-3.953,1.111-2.88,3.419-1.98,6.023c3.281,9.49,5.445,19.216,5.134,29.315c-0.125,4.063-0.424,8.138-1.52,12.135
		c-0.709,2.59-2.3,3.891-4.67,4.477c-4.428,1.096-8.901,1.248-13.351,0.161c-4.136-1.012-4.757-2.341-3.325-6.369
		c4.618-12.987,5.133-26.124,1.56-39.458c-0.65-2.428-1.803-3.586-4.319-4c-3.582-0.591-3.648-1.063-1.854-4.196
		c1.625-2.839,1.58-5.901,1.118-9.026c-0.19-1.289-1.031-1.241-1.967-1.235C43.679,66.873,41.38,66.861,39.082,66.861z"/>
	<path fill-rule="evenodd" clip-rule="evenodd" fill="#247123" d="M97.631,120.188c-0.076-7.676,1.535-15.062,4.045-22.254
		c0.752-2.155,0.445-2.877-1.947-3.098c-4.686-0.432-9.242-1.564-13.481-3.715c-6.991-3.546-7.853-8.873-2.029-14.18
		c6.003-5.469,13.396-7.65,21.362-8.263c8.495-0.653,16.497,0.724,23.783,5.38c2.473,1.581,4.6,3.521,6.24,5.948
		c3.233,4.782,2.226,9.007-2.877,11.7c-5.418,2.861-11.367,3.781-17.366,3.897c-2.554,0.05-3.449,1.065-4.17,3.146
		c-2.726,7.864-2.144,15.708-0.052,23.566c0.128,0.481,0.307,0.949,0.447,1.426c1.559,5.287,0.594,6.609-5.074,6.809
		c-1.082,0.039-2.19-0.112-3.261-0.313c-4.819-0.909-5.606-1.879-5.62-6.755C97.629,122.385,97.631,121.285,97.631,120.188z"/>
</g>
</svg>
