<?xml version="1.0" encoding="utf-8"?>
<!-- Generator: Adobe Illustrator 16.0.0, SVG Export Plug-In . SVG Version: 6.00 Build 0)  -->
<!DOCTYPE svg PUBLIC "-//W3C//DTD SVG 1.1//EN" "http://www.w3.org/Graphics/SVG/1.1/DTD/svg11.dtd">
<svg version="1.1" id="Layer_1" xmlns="http://www.w3.org/2000/svg" xmlns:xlink="http://www.w3.org/1999/xlink" x="0px" y="0px"
	 width="141.73px" height="141.73px" viewBox="0 0 141.73 141.73" enable-background="new 0 0 141.73 141.73" xml:space="preserve">
<path fill-rule="evenodd" clip-rule="evenodd" fill="#195F1D" d="M67.759,133.685c-11.413-0.258-22.762-1.094-33.833-4.141
	c-1.838-0.506-3.637-1.199-5.392-1.949c-6.018-2.578-7.778-5.979-6.797-12.465c1.602-10.598,7.014-19.088,14.525-26.391
	c4.436-4.313,9.417-7.898,14.98-10.684c2.563-1.283,4.803-1.717,7.378,0.143c4.036,2.916,9.091,4.07,13.676,3.979
	c4.944-0.1,10.233-1.34,14.543-4.512c1.648-1.215,3.215-1.037,4.894-0.215c8.811,4.32,16.383,10.197,22.241,18.104
	c4.763,6.43,8.414,13.381,8.732,21.625c0.211,5.488-1.373,8.004-6.482,10.266c-3.976,1.76-8.178,2.797-12.437,3.602
	C91.881,133.301,79.852,133.9,67.759,133.685z M66.957,126.742c4.991,0,9.985,0.104,14.972-0.023
	c9.091-0.23,18.128-1.201,26.849-3.818c7.768-2.33,8.741-2.32,6.134-11.016c-3.854-12.855-13.056-21.33-24.425-27.756
	c-1.025-0.58-1.669-0.109-2.485,0.291c-3.817,1.881-7.735,3.422-12.072,3.619c-1.409,0.064-2.172-0.373-2.402-1.834
	c-0.125-0.791,0.277-2.061-1.037-2.178c-1.138-0.1-1.495,1.006-1.758,1.836c-0.678,2.141-2.12,2.426-4.089,2.117
	c-2.822-0.441-5.644-1.045-8.032-2.547c-3.126-1.965-5.739-1.332-8.367,0.744c-0.259,0.205-0.569,0.344-0.843,0.533
	c-9.041,6.227-16.641,13.758-19.841,24.553c-2.753,9.287-1.945,9.357,6.565,11.84C46.162,126.029,56.551,126.715,66.957,126.742z"/>
<path fill-rule="evenodd" clip-rule="evenodd" fill="#195F1D" d="M100.521,46.267c0.131,12.798-7.565,24.79-18.665,29.08
	c-12.433,4.807-25.327,0.256-33.1-11.68c-8.297-12.741-6.038-30.366,5.196-40.546c13.016-11.794,33.303-8.525,42.019,6.771
	C99.023,35.249,100.461,40.423,100.521,46.267z M93.735,48.582c-0.188-10.076-3.106-16.143-8.48-21
	c-6.648-6.009-16.562-6.64-24-1.659c-13.121,8.784-14.327,29.118-2.342,39.463c7.13,6.153,16.032,7.09,23.488,2.216
	C90.207,62.5,93.633,54.996,93.735,48.582z"/>
</svg>
