<?xml version="1.0" encoding="utf-8"?>
<!-- Generator: Adobe Illustrator 16.0.0, SVG Export Plug-In . SVG Version: 6.00 Build 0)  -->
<!DOCTYPE svg PUBLIC "-//W3C//DTD SVG 1.1//EN" "http://www.w3.org/Graphics/SVG/1.1/DTD/svg11.dtd">
<svg version="1.1" id="Layer_1" xmlns="http://www.w3.org/2000/svg" xmlns:xlink="http://www.w3.org/1999/xlink" x="0px" y="0px"
	 width="141.73px" height="141.73px" viewBox="0 0 141.73 141.73" enable-background="new 0 0 141.73 141.73" xml:space="preserve">
<g>
	<path fill-rule="evenodd" clip-rule="evenodd" fill="#247123" d="M75.985,18.16c8.035-0.105,15.976,0.594,23.768,2.674
		c15.466,4.128,25.577,14.048,31.044,28.866c2.549,6.91,4.632,13.98,5.955,21.243c2.074,11.384-1.65,21.124-8.844,29.688
		c-8.59,10.229-19.889,16.296-32.371,20.494c-17.701,5.953-35.609,7.653-53.824,2.748c-10.342-2.785-19.168-8.053-25.75-16.706
		c-1.817-2.39-2.958-5.051-3.822-7.943c-1.696-5.675-3.744-11.242-5.583-16.875c-4.47-13.695-1.926-26.036,7.245-37.076
		c7.376-8.879,16.391-15.528,27.016-20.047C52.064,20.442,63.818,18.288,75.985,18.16z M112.422,66.641
		c0.09,0.415,0.266,0.835,0.182,0.894c-2.215,1.577-3.361,4.271-5.83,5.575c-0.552,0.291-0.93,0.158-1.43-0.232
		c-3.27-2.557-3.254-2.504-6.274,0.086C82.403,87.25,63.244,91.914,41.958,87.05c-14.902-3.406-22.347-15.297-18.565-29.446
		c0.258-0.967,0.534-1.89-0.64-2.577c-1.164-0.682-2.174-1.151-3.392-0.052c-0.873,0.788-1.597,1.418-2.633-0.312
		c-1.447-2.416-2.831-2.163-4.156,0.294c-6.002,11.13-4.418,22.677,4.508,31.665c6.895,6.942,15.464,11.094,24.977,12.352
		c24.679,3.266,47.348-1.79,66.991-17.842c6.345-5.184,11.264-11.449,13.705-19.3c4.447-14.298-3.107-29.21-18.064-35.029
		c-18.979-7.384-38.285-6.639-57.315-0.324c-12.781,4.241-23.763,11.444-31.523,22.899c-1.262,1.861-1.417,2.721,0.815,3.809
		c1.206,0.588,1.926,0.653,2.836-0.139c0.812-0.707,1.799-1.152,2.705-0.503c2.502,1.793,3.563,0.172,4.666-1.722
		c0.492-0.847,1.177-1.588,1.813-2.345c6.22-7.407,14.336-11.854,23.355-14.847c13.639-4.527,27.211-5.128,40.908,0.103
		c16.006,6.112,17.262,21.881,11.949,32.694c-0.486,0.988-1.986,1.89-0.115,3.076c1.545,0.979,2.854,1.428,4.232-0.247
		C109.911,68.167,111.029,67.285,112.422,66.641z M54.969,85.736C74.92,85.605,85.93,79.688,97.34,69.659
		c10.178-8.944,8.84-24.854-2.255-31.447c-3.091-1.837-6.437-3.164-9.949-4.058c-10.845-2.761-21.616-2.143-32.153,1.215
		c-10.076,3.21-18.73,8.737-24.392,17.974c-5.816,9.488-2.499,22.139,7.092,27.717C42.012,84.74,48.972,85.85,54.969,85.736z
		 M97.287,113.295c-0.073-0.199-0.166-0.449-0.258-0.701c-1.6-4.363-3.176-8.736-4.818-13.084c-0.273-0.721-0.342-2.041-1.711-1.408
		c-1.014,0.469-0.615,1.299-0.3,2.076c0.976,2.402,1.927,4.815,2.876,7.229c0.816,2.08,1.594,4.176,2.443,6.241
		c0.182,0.439,0.433,1.087,1.16,0.77C97.109,114.229,97.381,113.873,97.287,113.295z M27.235,109.736
		c-0.077-0.207-0.209-0.539-0.322-0.879c-1.3-3.915-2.968-7.68-4.725-11.404c-0.261-0.553-0.677-1.044-1.088-1.502
		c-0.132-0.146-0.503-0.176-0.73-0.119c-0.427,0.105-0.512,0.465-0.354,0.84c1.921,4.533,3.843,9.066,5.786,13.59
		c0.184,0.427,0.578,0.723,1.085,0.516C27.266,110.623,27.296,110.244,27.235,109.736z M123.465,75.486
		c-1.021,2.324,1.734,12.17,3.893,14.151C126.676,84.967,125.298,80.479,123.465,75.486z M132.261,76.176
		c-0.112-4.731-1.252-9.207-3.36-13.441C128.872,67.501,130.352,71.893,132.261,76.176z M38.342,107.149
		c0.403,3.308,1.685,6.3,2.975,9.289c0.158,0.366,0.452,0.569,0.84,0.497c0.424-0.082,0.591-0.414,0.459-0.81
		C41.559,112.969,40.488,109.814,38.342,107.149z M107.809,95.008c0.561,3.494,1.439,6.861,3.296,9.878
		C110.73,101.34,109.504,98.086,107.809,95.008z M74.557,113.377c0.457,1.92,0.628,3.964,2.109,5.467
		C76.452,116.831,75.991,114.918,74.557,113.377z M55.266,105.711c0.545,1.979,1.2,3.908,2.661,5.467
		C57.357,109.21,56.92,107.18,55.266,105.711z"/>
	<path fill-rule="evenodd" clip-rule="evenodd" fill="#247123" d="M81.475,91.592c-0.705-0.164-1.555-0.219-1.189-0.893
		c0.607-1.117,1.764-1.696,3.022-1.93c0.378-0.07,0.761,0.213,0.669,0.611C83.651,90.791,82.453,91.174,81.475,91.592z"/>
	<path fill-rule="evenodd" clip-rule="evenodd" fill="#247123" d="M59.298,73.645c-4.745,0.254-9.312-0.477-13.549-2.746
		c-5.131-2.748-7.068-7.663-5.248-13.208c1.586-4.833,4.928-8.298,8.85-11.265c1.241-0.938,1.323-1.447,0.178-2.582
		c-0.958-0.95-3.163-2.185-1.859-3.514c1.334-1.361,2.464,0.935,3.608,1.747c0.579,0.411,1.034,0.997,1.544,1.502
		c0.9,0.892,1.406,0.96,2.794,0.147c5.113-2.992,15.797-5.383,22.233-0.181c1.314,1.062,2.874,1.833,4.362,2.664
		c8.866,4.956,6.975,12.714,2.213,17.713c-5.863,6.155-13.299,8.976-21.625,9.708C61.641,73.733,60.466,73.645,59.298,73.645z
		 M59.077,70.986c5.913,0.006,12.335-1.633,17.276-4.562c3.204-1.899,6.072-4.182,7.701-7.699c1.193-2.576,1.291-5.09-0.566-7.35
		c-1.859-2.26-4.135-3.713-7.283-2.834c-1.102,0.308-1.984,0.165-1.092-1.22c0.765-1.188,0.165-1.795-0.679-2.448
		c-1.856-1.436-3.981-2.031-6.293-2.047c-3.007-0.021-5.884,0.641-8.692,1.673c-2.403,0.883-5.128,1.108-7.154,2.751
		c-3.571,2.896-6.935,6.015-8.465,10.603c-1.619,4.853-0.124,8.701,4.508,10.949C51.714,70.44,55.33,71.081,59.077,70.986z"/>
	<path fill-rule="evenodd" clip-rule="evenodd" fill="#247123" d="M87.921,70.779c-0.426,0.023-0.86-0.174-0.808-0.514
		c0.134-0.859,0.887-1.266,1.593-1.58c0.495-0.221,0.922,0.152,0.871,0.646C89.48,70.28,88.645,70.516,87.921,70.779z"/>
	<path fill-rule="evenodd" clip-rule="evenodd" fill="#247123" d="M60.603,62.066c3.448-0.166,6.427-0.802,8.808-2.973
		c1.443-1.315,2.506-2.943,1.803-5.016c-0.719-2.12-2.469-3.034-4.578-3.175c-1.244-0.083-2.514,0.075-3.76,0.219
		c-0.734,0.085-1.446,0.44-1.52,1.287c-0.078,0.885,0.324,1.567,1.257,1.813c0.347,0.09,0.704,0.147,1.046,0.254
		c0.842,0.264,1.442,0.802,1.492,1.71c0.042,0.75-0.504,1.128-1.184,1.225c-1.008,0.143-2.496,0.143-2.55-0.861
		c-0.121-2.296-1.961-3.052-3.142-4.414c-0.51-0.589-1.251-1.24-0.64-2.11c0.64-0.911,1.253-0.13,1.803,0.231
		c0.78,0.512,1.302-0.029,1.955-0.321c3.696-1.652,8.4-0.85,11.016,1.82c2.1,2.143,2.27,4.361,0.52,6.778
		c-3.525,4.87-12.71,6.858-17.846,3.863c-3.572-2.083-3.805-6.813-0.463-9.239c0.702-0.51,1.453-0.858,2.204-0.24
		c0.871,0.716-0.013,1.271-0.338,1.81c-0.909,1.512-2.395,2.888-1.188,4.875C56.584,61.717,58.705,62.038,60.603,62.066z"/>
</g>
</svg>
