<?xml version="1.0" encoding="utf-8"?>
<!-- Generator: Adobe Illustrator 16.0.0, SVG Export Plug-In . SVG Version: 6.00 Build 0)  -->
<!DOCTYPE svg PUBLIC "-//W3C//DTD SVG 1.1//EN" "http://www.w3.org/Graphics/SVG/1.1/DTD/svg11.dtd">
<svg version="1.1" id="Layer_1" xmlns="http://www.w3.org/2000/svg" xmlns:xlink="http://www.w3.org/1999/xlink" x="0px" y="0px"
	 width="850.39px" height="850.39px" viewBox="0 0 850.39 850.39" enable-background="new 0 0 850.39 850.39" xml:space="preserve">
<g>
	<path fill-rule="evenodd" clip-rule="evenodd" fill="#16B9C9" d="M441.604,100.247c8.813,1.879,17.765,3.275,26.418,5.721
		c42.613,12.046,74.455,37.646,96.288,76.232c14.988,26.488,21.584,54.861,19.685,84.901
		c-4.771,75.452-60.29,138.043-138.659,147.766c-85.391,10.593-161.839-49.475-174.699-131.56
		c-13.222-84.394,41.672-163.435,125.166-180.094c4.248-0.848,8.774-0.516,12.647-2.966
		C419.501,100.247,430.553,100.247,441.604,100.247z"/>
	<path fill-rule="evenodd" clip-rule="evenodd" fill="#16B9C9" d="M435.266,472.81c37.57-2.115,72.397-12.629,104.528-32.592
		c24.341-15.124,52.981-12.683,74.416,6.431c32.317,28.816,56.506,63.436,72.526,103.89c6.808,17.191,12.304,34.62,15.582,52.732
		c5.919,32.706,7.327,65.828,3.091,98.642c-3.776,29.246-30.779,50.921-60.47,51.172c-40.357,0.343-80.721,0.103-121.081,0.094
		c-103.876-0.021-207.752-0.069-311.628-0.06c-14.606,0.001-28.15-3.18-39.905-12.301c-0.254-3.951,2.638-6.028,5.016-8.406
		c84.37-84.372,168.746-168.74,253.087-253.141C432.323,477.375,434.949,475.926,435.266,472.81z"/>
	<path fill-rule="evenodd" clip-rule="evenodd" fill="#16B9C9" d="M435.266,472.81c-0.316,3.116-2.942,4.565-4.837,6.461
		c-84.342,84.4-168.718,168.769-253.087,253.141c-2.377,2.378-5.27,4.455-5.016,8.406c-15.837-10.562-25.292-25.745-26.165-44.281
		c-1.929-40.945-1.52-81.845,10.884-121.667c15.833-50.832,42.822-94.478,82.971-129.567c19.543-17.081,48.919-20.042,70.744-6.378
		c37.655,23.574,78.345,34.809,122.612,33.679C434.001,472.586,434.634,472.737,435.266,472.81z"/>
</g>
</svg>
