<?xml version="1.0" encoding="utf-8"?>
<!-- Generator: Adobe Illustrator 16.0.0, SVG Export Plug-In . SVG Version: 6.00 Build 0)  -->
<!DOCTYPE svg PUBLIC "-//W3C//DTD SVG 1.1//EN" "http://www.w3.org/Graphics/SVG/1.1/DTD/svg11.dtd">
<svg version="1.1" id="Layer_1" xmlns="http://www.w3.org/2000/svg" xmlns:xlink="http://www.w3.org/1999/xlink" x="0px" y="0px"
	 width="850.39px" height="850.39px" viewBox="0 0 850.39 850.39" enable-background="new 0 0 850.39 850.39" xml:space="preserve">
<path fill-rule="evenodd" clip-rule="evenodd" fill="#16B9C9" d="M793.886,397.832c0,18.722,0,37.446,0,56.169
	c-2.313,1.476-1.353,3.898-1.563,5.891c-2.692,25.565-6.907,50.897-15.366,75.191C727.15,678.141,627.69,763.213,478.44,789.954
	c-8.608,1.541-17.524,0.887-25.883,3.933c-18.722,0-37.444,0-56.167,0c-0.996-1.954-2.893-1.32-4.451-1.47
	c-53.216-5.135-103.495-20.07-149.551-47.296c-101.936-60.25-162.524-149.093-181.878-266.02c-1.306-7.888-0.665-16.122-4.007-23.66
	c0-20.163,0-40.327,0-60.489c2.042-0.925,1.355-2.85,1.53-4.396c1.698-15.01,3.875-29.935,7.113-44.706
	C97.839,196.715,220.721,82.237,371.292,60.474c7.898-1.141,16.104-0.718,23.659-3.97c19.202,0,38.405,0,57.607,0
	c0.82,1.647,2.411,1.255,3.766,1.375c68.192,5.977,130.343,28.585,185.345,69.337c82.443,61.083,131.998,142.48,148.188,244.021
	C791.269,380.096,790.936,389.217,793.886,397.832z M355.069,605.476c33.846-0.38,59.017-9.25,80.013-28.11
	c13.73-12.332,26.459-25.797,39.451-38.934c5.16-5.217,7.428-11.721,6.04-19.119c-1.695-9.021-7.008-15.169-15.636-18.122
	c-8.719-2.983-16.701-1.071-23.26,5.3c-11.362,11.035-22.271,22.537-33.745,33.453c-16.524,15.717-36.438,22.213-58.873,18.389
	c-27.096-4.617-46.124-20.259-54.479-46.5c-8.468-26.596-2.44-50.794,17.02-71.079c10.297-10.734,21.3-20.788,31.7-31.427
	c9.611-9.832,9.588-23.503,0.395-32.876c-9.313-9.499-22.591-9.528-32.671,0.323c-11.67,11.406-23.6,22.616-34.468,34.761
	c-32.877,36.74-41.144,78.928-21.8,124.162C274.307,581.403,311.506,603.215,355.069,605.476z M497.473,245.19
	c-34.891-0.004-62.252,9.764-82.377,28.091c-13.643,12.422-26.439,25.785-39.435,38.905c-4.979,5.028-7.155,11.373-5.935,18.462
	c1.604,9.304,7.02,15.669,15.98,18.628c8.761,2.894,16.668,0.806,23.204-5.548c11.865-11.536,23.188-23.65,35.354-34.852
	c22.5-20.715,55.935-23.629,82.068-7.779c38.729,23.491,44.293,76.594,11.426,109.686c-10.313,10.383-21.025,20.367-31.197,30.88
	c-9.18,9.485-8.873,23.198,0.162,32.308c9.203,9.279,22.518,9.54,32.131,0.149c12.348-12.067,25.154-23.794,36.407-36.837
	c31.962-37.043,39.383-79.168,19.567-123.855C575.07,268.864,538.416,247.464,497.473,245.19z M497.043,377.411
	c0.16-9.864-5.328-18.367-13.611-22.035c-8.959-3.969-18.233-2.359-25.744,5.119c-32.442,32.292-64.821,64.645-97.1,97.1
	c-9.839,9.895-9.758,23.254-0.281,32.639c9.458,9.371,22.685,9.341,32.657-0.576c32.289-32.104,64.425-64.363,96.632-96.551
	C494.206,388.499,496.713,382.985,497.043,377.411z"/>
</svg>
